<?xml version="1.0" encoding="UTF-8"?>
<svg version="1.1" xmlns="http://www.w3.org/2000/svg" width="1500" height="1500">
<path d="M0 0 C29.09433877 -0.80260245 61.35353 8.94667547 82.9609375 29.0703125 C97.0767597 44.60362312 102.63616978 64.4488618 102.109375 85.19140625 C99.99390745 114.77857043 88.59960816 144.33865182 66.828125 165.125 C63.32347088 168.06683263 59.68034044 170.83121964 56.0546875 173.62109375 C37.5906463 187.87246535 26.46157729 212.34592081 23.14453125 235.02734375 C21.85326699 247.6689803 22.24538243 260.50783061 29.9453125 271.1484375 C34.94992449 276.40224179 41.55919238 279.92854198 48.79296875 280.36328125 C60.51612871 280.62395535 71.08397103 279.13901866 82.49560547 276.61230469 C103.53763459 272.21625171 127.90570744 271.78899883 146.578125 283.91015625 C156.98792527 291.70201568 161.85419078 301.39912542 164.41796875 314.03125 C167.7021192 338.80312766 159.04011906 362.32946184 149.52734375 384.71484375 C133.43937062 419.21432216 133.43937062 419.21432216 133.453125 456 C136.41763989 463.26151208 141.30202579 466.10604104 148.20385742 469.12817383 C152.89164174 470.90882536 157.75671415 471.90355681 162.640625 473 C187.06466028 478.79162993 187.06466028 478.79162993 193.55859375 488.7890625 C198.99266696 499.83203166 201.54269355 509.63104263 198.07421875 521.76171875 C191.30420794 540.25886126 174.31291452 549.36981717 157.42382812 557.26977539 C149.48743426 560.84934478 141.31246976 563.89291703 133.16552734 566.9543457 C117.91433432 572.78593667 106.16886011 578.43951052 98.87109375 593.6328125 C92.84799148 608.02509433 94.51307461 622.03132765 100.078125 636.3125 C108.0320195 654.0904011 121.2829329 663.32854913 136.828125 674.125 C137.52470215 674.60904297 138.2212793 675.09308594 138.93896484 675.59179688 C159.29451634 689.5840921 181.41397508 700.40474116 205.140625 707.3125 C217.36507115 710.94040015 225.07454318 718.67121321 231.19140625 729.6953125 C241.47261994 751.23923999 242.55186522 776.31235492 235.078125 798.8984375 C226.57860862 820.83781416 210.38352138 831.87395443 189.82177734 841.25683594 C172.37523362 848.85417974 152.9965799 852.23784336 134.734375 845.4140625 C112.31658887 835.47068962 98.44906978 816.41919829 89.62792969 794.08642578 C87.64632445 788.76423666 85.77947047 783.40417786 83.91796875 778.0390625 C78.31657647 761.96550205 71.11273658 747.02794735 59.828125 734.125 C59.22484375 733.42632813 58.6215625 732.72765625 58 732.0078125 C48.37652293 721.61607465 32.95914019 713.09233238 18.60839844 711.94799805 C-6.30772921 711.31730542 -27.80205443 716.85752425 -46.4921875 734.2890625 C-52.06768815 740.09768513 -56.16113858 746.60552421 -60.30859375 753.44921875 C-76.29441772 779.77578324 -93.77544675 805.99207748 -114.171875 829.125 C-114.90535156 829.96933594 -115.63882813 830.81367187 -116.39453125 831.68359375 C-118.61539466 834.20272194 -120.87805716 836.67209479 -123.171875 839.125 C-123.63787109 839.62499512 -124.10386719 840.12499023 -124.58398438 840.64013672 C-137.74857774 854.64348329 -154.98210234 870.16497234 -175.16796875 871.49609375 C-211.7804637 872.52094487 -244.42004442 856.91968964 -270.75 832.4921875 C-273.46814379 829.83542115 -275.98768021 827.08676374 -278.43359375 824.1796875 C-280.43463629 821.81441025 -282.51880727 819.53644715 -284.609375 817.25 C-287.67529502 813.86025197 -290.59085847 810.40058687 -293.421875 806.8125 C-299.74213233 798.84997109 -306.18805164 792.85665143 -316.171875 790.125 C-343.1394628 787.37320533 -367.21865648 801.24188382 -390.671875 812.6875 C-399.53741413 817.01105965 -408.45948122 821.06286322 -417.609375 824.75 C-418.59679687 825.15162354 -419.58421875 825.55324707 -420.6015625 825.96704102 C-439.94624086 833.59040604 -458.77500809 835.20253769 -478.16748047 827.00585938 C-478.82893066 826.71517578 -479.49038086 826.42449219 -480.171875 826.125 C-480.79594238 825.85236328 -481.42000977 825.57972656 -482.06298828 825.29882812 C-492.75785078 820.46046885 -502.15882574 812.96803987 -507.171875 802.125 C-512.91969366 786.85107628 -513.9709572 771.16228338 -514.34765625 755 C-514.39780884 753.07692017 -514.39780884 753.07692017 -514.44897461 751.11499023 C-514.5132445 748.53666173 -514.56523998 745.95799213 -514.60375977 743.37915039 C-514.80631022 735.28955529 -515.32757741 729.00358762 -520.234375 722.3125 C-529.8833983 715.12705711 -542.16055405 716.54275203 -553.4296875 718.18359375 C-556.3878785 718.62815216 -559.34251199 719.0932625 -562.296875 719.5625 C-565.25722316 720.02339061 -568.21828632 720.47952179 -571.1796875 720.93359375 C-571.88367172 721.04192535 -572.58765594 721.15025696 -573.31297302 721.26187134 C-589.71034561 723.75221478 -608.38542182 725.7714809 -622.890625 715.98046875 C-631.87840862 708.67019954 -637.25423794 700.57804333 -639.171875 689.125 C-640.65230801 673.05866148 -634.5756803 659.84606622 -627.171875 646.125 C-625.84028657 643.64415683 -624.51121832 641.16207062 -623.18798828 638.67675781 C-622.32845354 637.06635424 -621.46141871 635.4599218 -620.58544922 633.85839844 C-616.78717512 626.7872247 -613.13102778 619.58875489 -614.4765625 611.38671875 C-617.2968504 602.21286093 -624.29394114 596.75157977 -632.421875 592.375 C-663.84219008 581.90156164 -700.46520307 597.58045683 -730.2734375 607.45703125 C-731.57979156 607.8880867 -731.57979156 607.8880867 -732.91253662 608.32785034 C-737.18567755 609.73818497 -741.45421972 611.1596993 -745.71484375 612.60742188 C-760.041409 617.41241228 -775.34945548 622.02725215 -790.609375 621.5625 C-791.8459082 621.54050537 -791.8459082 621.54050537 -793.10742188 621.51806641 C-808.43880621 621.04757631 -821.76364769 616.26031472 -832.921875 605.53125 C-846.54910352 590.95768617 -848.82771269 574.82672465 -848.29931641 555.71044922 C-847.56708822 540.85547512 -839.47014464 526.5387951 -829.171875 516.125 C-814.50449714 503.26868556 -797.30395805 498.58237257 -778.171875 499.125 C-774.3617053 499.42020267 -770.58263617 499.87814219 -766.79296875 500.3671875 C-764.6457568 500.63073612 -762.49853982 500.89424376 -760.35131836 501.15771484 C-759.24883759 501.29570496 -758.14635681 501.43369507 -757.01046753 501.5758667 C-698.19295844 511.79233736 -698.19295844 511.79233736 -642.9765625 496.6328125 C-638.09108579 492.55100728 -635.52454315 488.20620592 -634.80078125 481.8828125 C-634.57143208 469.33606378 -638.10826633 459.24663656 -643.546875 448.0625 C-656.42824377 421.56136256 -664.44941551 386.8598184 -654.89501953 358.12548828 C-649.80304597 344.03918465 -641.88957885 332.23480134 -633.0546875 320.25390625 C-624.76817295 308.85550319 -622.78721608 299.03958583 -624.171875 285.125 C-628.49273741 259.46987945 -647.6860026 236.72081519 -663.609375 217.1875 C-665.27108371 215.14538558 -666.93272239 213.10321535 -668.59375 211.06054688 C-669.60345492 209.82215879 -670.6161935 208.58623412 -671.6328125 207.35351562 C-683.14946091 193.34809998 -689.7912586 179.444277 -688.171875 161.125 C-685.92219486 151.09091528 -680.70795509 143.30816409 -672.30078125 137.4375 C-659.75906459 129.70535909 -646.1941205 128.51165546 -631.984375 131.6875 C-612.44557922 136.45253406 -595.04454131 147.39261778 -577.796875 157.375 C-557.14613367 169.19644575 -534.93282369 179.81440412 -510.484375 175.5625 C-501.90381803 173.21625395 -492.35513774 168.46436194 -486.171875 162.125 C-484.68947209 159.10095621 -483.751959 155.97348458 -482.796875 152.75 C-478.24376894 138.72209704 -472.19920565 127.12671791 -462.171875 116.125 C-461.20121094 115.03251953 -461.20121094 115.03251953 -460.2109375 113.91796875 C-449.45519337 102.43785818 -434.58369877 95.44577925 -418.859375 94.7890625 C-402.16424463 94.52341171 -388.56577283 97.42805566 -372.99609375 103.10595703 C-363.27472599 106.60555823 -354.34884279 107.28019946 -344.6484375 103.015625 C-337.86513506 99.36481106 -332.92415846 95.36354235 -328.859375 88.75 C-328.47330078 88.13785645 -328.08722656 87.52571289 -327.68945312 86.89501953 C-325.0496129 82.66846683 -322.59466008 78.35324275 -320.171875 74 C-316.39159819 67.25252006 -312.04463271 61.12790992 -307.171875 55.125 C-306.06779297 53.75408203 -306.06779297 53.75408203 -304.94140625 52.35546875 C-292.63597002 37.94759618 -274.60503943 24.77441982 -255.171875 23.125 C-242.70967158 22.1533183 -228.30120648 23.51706973 -218.05078125 31.39453125 C-201.97009025 46.20481423 -198.74742453 69.96506664 -194.41796875 90.32421875 C-194.26752106 91.02725128 -194.11707336 91.73028381 -193.96206665 92.45462036 C-193.22366198 95.90747352 -192.49656805 99.3617484 -191.79492188 102.82226562 C-188.82029964 116.98203814 -184.5693213 132.40864142 -172.98046875 141.96875 C-161.98871701 148.99587423 -143.97882702 148.75146753 -131.44921875 146.4375 C-116.92099236 142.35940136 -107.67952861 133.51549137 -100.14453125 120.75390625 C-91.46709344 105.12434435 -86.18148465 87.79674177 -81.59814453 70.60205078 C-77.10777024 53.82597181 -71.53372556 39.46372932 -60.171875 26.125 C-59.63304687 25.47402344 -59.09421875 24.82304687 -58.5390625 24.15234375 C-43.98093244 8.09450683 -20.92204846 1.20414667 0 0 Z " fill="#059DEA" transform="translate(1027.171875,364.875)"/>
<path d="M0 0 C1.051875 0.763125 2.10375 1.52625 3.1875 2.3125 C17.47691721 15.966832 22.9701745 35.01425702 23.42163086 54.21679688 C23.46806452 63.45780986 23.28106693 72.25489824 20 81 C19.6596875 81.98613281 19.319375 82.97226562 18.96875 83.98828125 C12.70882556 100.63206685 1.63567134 110.77367123 -14.03515625 118.23828125 C-21.10091086 121.43814677 -27.73490096 123.60577009 -35.4375 124.6875 C-36.33057861 124.81342529 -37.22365723 124.93935059 -38.14379883 125.0690918 C-45.49174684 126.00187385 -52.7844355 126.28877046 -60.1875 126.3125 C-61.72651978 126.32059692 -61.72651978 126.32059692 -63.29663086 126.32885742 C-75.08276296 126.21841945 -87.35878394 124.64121606 -96 116 C-98.7746056 110.84716102 -99.08207993 104.92275876 -99.44897461 99.16357422 C-99.5225267 98.0331369 -99.5960788 96.90269958 -99.67185974 95.73800659 C-99.74791946 94.52251129 -99.82397919 93.30701599 -99.90234375 92.0546875 C-100.02876664 90.09764054 -100.15519049 88.14059364 -100.28166294 86.18354988 C-100.45840532 83.43675339 -100.63235809 80.68978285 -100.80633545 77.94281006 C-101.18854021 71.91734937 -101.57696343 65.89228492 -101.96484375 59.8671875 C-102.0070895 59.20828333 -102.04933525 58.54937916 -102.09286118 57.87050819 C-102.79173811 46.97889347 -103.54754843 36.09209224 -104.34983826 25.20761108 C-105.93144396 3.57405516 -105.93144396 3.57405516 -105 -1 C-96.95163279 -9.21985231 -85.90927103 -10.96952995 -75 -13 C-73.99453125 -13.20753906 -72.9890625 -13.41507813 -71.953125 -13.62890625 C-47.60408253 -18.13915634 -19.79029375 -15.95378767 0 0 Z " fill="#FCFDFE" transform="translate(527,871)"/>
<path d="M0 0 C1.23363281 -0.02900391 2.46726562 -0.05800781 3.73828125 -0.08789062 C16.62445183 -0.17596645 27.95238912 2.61734262 37.75 11.3125 C45.64465552 19.51407517 48.25926793 29.46937534 49.015625 40.55078125 C49.09874939 41.59340622 49.18187378 42.63603119 49.26751709 43.71025085 C49.43936319 45.90221076 49.6036674 48.0947739 49.76074219 50.2878418 C49.99869262 53.60676467 50.25893099 56.92333259 50.5234375 60.24023438 C52.86433483 90.29283673 52.86433483 90.29283673 49.3125 95.75 C40.00304842 106.1059473 26.94574291 109.68339894 13.75 112.3125 C12.85667969 112.49941406 11.96335937 112.68632813 11.04296875 112.87890625 C-4.71563441 114.95388247 -24.51296349 115.22213266 -38.1015625 106.03515625 C-45.1713781 100.36644956 -50.35819307 93.56525632 -51.48925781 84.36669922 C-52.24237932 75.23036765 -52.09383557 66.82992229 -46.25 59.3125 C-33.01284805 44.07626796 -9.44043762 41.82887104 9.56445312 40.45214844 C10.28568359 40.40606445 11.00691406 40.35998047 11.75 40.3125 C10.76085694 35.12627764 10.76085694 35.12627764 7.25 31.4375 C6.425 31.06625 5.6 30.695 4.75 30.3125 C4.09 29.9825 3.43 29.6525 2.75 29.3125 C-10.74001173 27.93222422 -25.37652674 28.84465061 -37.46484375 35.5390625 C-39.25 36.3125 -39.25 36.3125 -41.328125 36.140625 C-44.44240929 34.79869762 -45.59297529 32.77415327 -47.2421875 29.890625 C-49.28146528 24.67386789 -49.48833817 19.75574472 -48.25 14.3125 C-43.75577365 6.81411165 -35.27495774 4.44105244 -27.3125 2.22265625 C-18.33251966 0.04927532 -9.19539728 0.07117181 0 0 Z " fill="#FCFDFE" transform="translate(617.25,873.6875)"/>
<path d="M0 0 C1.30324219 -0.01836914 1.30324219 -0.01836914 2.6328125 -0.03710938 C16.22526087 -0.067723 29.45731996 4.85900487 39.4140625 14.22265625 C48.26223155 23.61762226 52.87001998 34.42469899 52.546875 47.3828125 C52.11540361 51.4590817 51.19377436 53.31381551 48.25 56.1875 C39.17470065 62.48634982 27.65401594 63.75561687 17.0625 65.875 C14.20517696 66.45950182 11.34870172 67.04794542 8.49259949 67.63838196 C6.7259967 68.00222735 4.95854884 68.36200244 3.19013977 68.71696472 C-0.47186644 69.45971689 -4.07702595 70.24365801 -7.66137695 71.30395508 C-10.54548718 72.12899617 -12.77515857 72.36779342 -15.75 72.1875 C-12.77357137 77.52026797 -9.308753 80.58927467 -3.75 83.1875 C10.57192933 87.01945433 24.22584673 82.93507542 37.25 77.1875 C38.9138262 76.51377557 40.579583 75.84471325 42.25 75.1875 C43.39888283 76.30938559 44.54401137 77.43511684 45.6875 78.5625 C46.32558594 79.18898438 46.96367188 79.81546875 47.62109375 80.4609375 C51.16654131 84.21894187 50.58636357 88.27102757 50.515625 93.2109375 C50.07094306 98.19399104 48.15892865 100.52610276 44.47265625 103.734375 C29.92247002 114.68088382 6.50425293 115.26947194 -10.95019531 112.88720703 C-25.51964721 109.90104 -38.08526486 101.04083954 -46.21875 88.78515625 C-48.60799 84.73198125 -50.29873076 80.65552798 -51.75 76.1875 C-52.0490625 75.31996094 -52.348125 74.45242188 -52.65625 73.55859375 C-57.33469417 57.98543932 -56.03280972 39.97911329 -48.31640625 25.62890625 C-39.43772214 11.7905582 -27.23365082 5.05299673 -11.83642578 0.63891602 C-7.93998362 -0.20411248 -3.97104817 0.00289435 0 0 Z " fill="#FCFDFE" transform="translate(952.75,848.8125)"/>
<path d="M0 0 C1.18190918 0.00628418 1.18190918 0.00628418 2.38769531 0.01269531 C11.94220257 0.19772285 19.94867876 2.20311395 26.9375 9.1015625 C32.7441005 15.36785221 35.30096734 21.19287219 36.2109375 29.68359375 C36.28815033 30.40252304 36.36536316 31.12145233 36.44491577 31.86216736 C37.54460068 42.67187663 38.11242873 53.53062474 38.75 64.375 C38.88497596 66.6100527 39.02038975 68.845079 39.15625 71.08007812 C39.4842034 76.49059218 39.8067941 81.90140436 40.125 87.3125 C38.07421823 87.81008283 36.02180896 88.3009606 33.96875 88.7890625 C32.82599609 89.06314941 31.68324219 89.33723633 30.50585938 89.61962891 C24.83307555 90.78220549 19.58915633 91.36107716 14.1875 89.0625 C8.32798076 84.0907867 7.95166553 78.65015978 7.125 71.3125 C6.63037338 65.04983829 6.32116489 58.78129616 6.02050781 52.50683594 C6.29825524 38.30753186 6.29825524 38.30753186 1 26.1875 C-2.68150206 25.06704285 -6.06995094 24.5774337 -9.875 25.3125 C-12.57929748 26.76581789 -12.57929748 26.76581789 -14.875 28.3125 C-14.29014477 41.39478795 -13.49624598 54.4537077 -12.53564453 67.51416016 C-11.97614547 75.46243136 -11.76238469 83.3451755 -11.875 91.3125 C-17.25088648 93.10446216 -22.41317197 93.58469148 -28.0625 93.6875 C-28.75150391 93.71328125 -29.44050781 93.7390625 -30.15039062 93.765625 C-33.63911544 93.7791341 -35.72642923 93.40127762 -38.73828125 91.6015625 C-42.77150931 87.28077339 -43.29363674 82.64146634 -43.875 76.9375 C-43.95621094 76.19161621 -44.03742187 75.44573242 -44.12109375 74.67724609 C-44.67444057 69.25125489 -45.04870382 63.81875566 -45.375 58.375 C-45.43796265 57.33622208 -45.43796265 57.33622208 -45.50219727 56.27645874 C-45.71226082 52.77686678 -45.90991401 49.27714995 -46.08984375 45.77587891 C-46.16332031 44.48085449 -46.23679687 43.18583008 -46.3125 41.8515625 C-46.37308594 40.68834473 -46.43367187 39.52512695 -46.49609375 38.32666016 C-46.85601648 35.46351193 -47.30145757 33.70571244 -48.875 31.3125 C-53.12188643 28.81433151 -57.08879711 29.0086141 -61.875 29.3125 C-64.06826054 30.26515751 -64.06826054 30.26515751 -65.875 31.3125 C-66.1856767 42.40193217 -65.22844097 53.39240823 -64.375 64.4375 C-64.15853167 67.24965121 -63.94349922 70.0618741 -63.73303223 72.8744812 C-63.60304075 74.61118068 -63.4697518 76.34763808 -63.33239746 78.08377075 C-62.90128394 83.83592671 -62.80288154 89.54521762 -62.875 95.3125 C-70.89297036 97.29059726 -81.15002534 99.7290201 -89.03125 96.40234375 C-93.1240858 93.2825596 -94.4867317 89.16262762 -95.16143799 84.20986938 C-95.39261376 81.73111506 -95.56898148 79.25405099 -95.7265625 76.76953125 C-95.79032074 75.84645676 -95.85407898 74.92338226 -95.91976929 73.97233582 C-96.05289461 72.01672711 -96.18209134 70.06084752 -96.30761719 68.10473633 C-96.4965123 65.17901954 -96.70034021 62.25464068 -96.90625 59.33007812 C-97.53418391 50.12260821 -98.02231747 40.91677931 -98.140625 31.6875 C-98.15952789 30.90965652 -98.17843079 30.13181305 -98.19790649 29.33039856 C-98.21044449 24.89068058 -97.74296736 22.03616163 -95 18.5 C-93.0546875 16.80859375 -93.0546875 16.80859375 -90.875 15.3125 C-90.11445312 14.76722656 -89.35390625 14.22195313 -88.5703125 13.66015625 C-78.69621499 7.2088689 -68.34749905 4.13403176 -56.6875 4.125 C-55.46836914 4.10663086 -55.46836914 4.10663086 -54.22460938 4.08789062 C-47.28094252 4.07131863 -40.80224892 4.73628904 -34.625 8.0625 C-31.97605196 9.63904335 -31.97605196 9.63904335 -29.50390625 8.546875 C-26.16594298 6.97956981 -22.91879842 5.27068251 -19.66796875 3.53125 C-13.16283026 0.69264411 -7.00953453 -0.05107676 0 0 Z " fill="#FBFDFD" transform="translate(942.875,675.6875)"/>
<path d="M0 0 C0.72445312 -0.03287109 1.44890625 -0.06574219 2.1953125 -0.09960938 C6.05931577 -0.13810941 8.64553338 0.22162768 11.7734375 2.58984375 C16.35793484 7.60800976 16.72711048 13.16514217 17.15283203 19.73095703 C17.21164551 20.54161118 17.27045898 21.35226532 17.33105469 22.18748474 C17.52264854 24.8562801 17.70295482 27.52570255 17.8828125 30.1953125 C18.01391092 32.06375023 18.14558313 33.93214778 18.27780151 35.80050659 C18.55319764 39.71564187 18.82330135 43.63109401 19.08935547 47.546875 C19.42857754 52.53682354 19.7782924 57.52596436 20.13171577 62.514925 C20.40445015 66.37542905 20.67281578 70.23622699 20.939785 74.09713364 C21.06713503 75.93498726 21.19550304 77.77277068 21.32495499 79.61047745 C21.99921613 89.23109741 22.59254744 98.78559979 22.375 108.4375 C14.3169208 111.24845786 4.63944997 113.57205332 -3.734375 110.71875 C-7.23600133 108.56923681 -8.43236458 106.2368238 -9.625 102.4375 C-10.14866555 99.28322459 -10.45957883 96.12080225 -10.75 92.9375 C-10.83491699 92.05416992 -10.91983398 91.17083984 -11.00732422 90.26074219 C-11.63716332 83.29829543 -11.8546491 76.42903929 -11.625 69.4375 C-12.18783691 69.49808594 -12.75067383 69.55867187 -13.33056641 69.62109375 C-24.46902575 70.80144811 -35.4121138 71.77671336 -46.625 71.4375 C-46.42583984 72.49324219 -46.42583984 72.49324219 -46.22265625 73.5703125 C-43.84824145 86.84623758 -43.46788537 99.99547068 -43.625 113.4375 C-61.08875618 118.55776359 -61.08875618 118.55776359 -69.5625 115.3125 C-74.79288999 110.55760001 -76.26891403 105.83477172 -76.7109375 98.97265625 C-76.78178558 98.08635025 -76.85263367 97.20004425 -76.92562866 96.28688049 C-77.17972448 93.00499242 -77.40272256 89.72169604 -77.625 86.4375 C-77.72326951 85.04884894 -77.82213497 83.66023995 -77.92150879 82.27166748 C-78.67890493 71.67073616 -79.38621288 61.06679828 -80.08013916 50.46154785 C-80.30884154 46.97899329 -80.54082772 43.49666061 -80.7728672 40.01432705 C-80.99700642 36.64727434 -81.21973415 33.28012954 -81.44196701 29.91295052 C-81.54772684 28.31136172 -81.65378448 26.70979256 -81.76015091 25.10824394 C-81.9073677 22.88662049 -82.05282567 20.66488901 -82.19775391 18.44311523 C-82.32194199 16.55289894 -82.32194199 16.55289894 -82.44863892 14.62449646 C-82.58104689 12.23177057 -82.625 9.83388666 -82.625 7.4375 C-73.9468705 4.14647121 -65.11986884 2.89508068 -56.0625 5.4375 C-51.51019064 9.17272819 -49.96905298 13.02334676 -49.16015625 18.69921875 C-48.41869812 28.25691871 -48.51946662 37.8574145 -48.625 47.4375 C-47.60664063 47.293125 -46.58828125 47.14875 -45.5390625 47 C-34.83604523 45.56782524 -24.4111083 45.25479433 -13.625 45.4375 C-13.71587891 44.45467041 -13.80675781 43.47184082 -13.90039062 42.45922852 C-14.23995829 38.7750275 -14.57411892 35.09035185 -14.90673828 31.40551758 C-15.05079607 29.81782024 -15.19627452 28.23025108 -15.34326172 26.64282227 C-16.84463851 10.40854742 -16.84463851 10.40854742 -16.625 2.4375 C-10.98405549 0.85217812 -5.85265158 0.04736858 0 0 Z " fill="#FBFDFE" transform="translate(503.625,686.5625)"/>
<path d="M0 0 C3.84336413 3.89787993 6.82261619 6.97782459 7.3125 12.5625 C7.25015063 17.42575077 5.8243634 22.01625286 3 26 C-0.25292846 27.47860385 -2.41182085 26.77491635 -5.6875 25.625 C-10.51197525 24.08482496 -14.95062225 23.27036038 -20 23 C-21.03511719 22.93554688 -22.07023437 22.87109375 -23.13671875 22.8046875 C-30.39507356 22.55178315 -35.6824709 23.34334233 -42 27 C-42.16687448 29.41645782 -42.16687448 29.41645782 -42 32 C-39.33892577 34.66107423 -37.23831313 34.75920086 -33.5625 35.5 C-32.29792969 35.75910156 -31.03335937 36.01820313 -29.73046875 36.28515625 C-26.6167189 36.88182245 -23.50270293 37.42154317 -20.375 37.9375 C-8.0688731 40.16019252 4.2535138 44.243 11.74609375 54.77734375 C16.78743237 63.71354834 17.59298225 73.05207741 15.30859375 83.015625 C11.31022096 93.92331979 3.70300733 99.41857129 -6.5625 104.19140625 C-17.7069996 108.68569106 -29.44632636 109.17272177 -41.3125 109.3125 C-42.67242065 109.33908691 -42.67242065 109.33908691 -44.05981445 109.36621094 C-54.23815118 109.35507795 -63.2131235 106.72430883 -71 100 C-74.88355727 95.72913378 -75.6917443 91.18829737 -75.45703125 85.51171875 C-74.71922262 81.45692432 -73.02301089 77.84799447 -70 75 C-66.06075352 75 -63.8936845 75.6112366 -60.25 76.9375 C-55.47822637 78.56059127 -51.04977317 79.80229273 -46 80 C-44.11861328 80.07734375 -44.11861328 80.07734375 -42.19921875 80.15625 C-40.77872695 80.19099207 -39.35814452 80.22219494 -37.9375 80.25 C-37.26428711 80.2715918 -36.59107422 80.29318359 -35.89746094 80.31542969 C-30.79776875 80.34788 -27.38412571 79.45488672 -23 77 C-21.9384058 73.41136476 -21.9384058 73.41136476 -22 70 C-26.77646041 66.33906113 -31.77905822 66.18132245 -37.5625 65.5625 C-50.93855375 63.91724102 -65.46418435 61.27737168 -74.4375 50.1875 C-79.87149313 42.02881343 -81.07285043 33.70387191 -80 24 C-79.09922772 20.67681187 -77.78372876 17.93560375 -76 15 C-75.59910156 14.31292969 -75.19820312 13.62585938 -74.78515625 12.91796875 C-67.36447227 1.66864201 -53.76589336 -2.88338662 -41.15234375 -5.6171875 C-27.90025547 -7.22648694 -11.50520184 -7.67013456 0 0 Z " fill="#FCFDFE" transform="translate(1099,846)"/>
<path d="M0 0 C4.58655326 3.73478415 8.83181466 7.80891254 13 12 C13.7528125 12.7528125 14.505625 13.505625 15.28125 14.28125 C26.97989223 26.72266316 37.45673126 43.63418128 37.203125 61.02734375 C36.86665128 65.95150721 35.9433926 69.1509885 32.23046875 72.68359375 C21.70007864 81.07971741 7.77633143 81.17266812 -5.15380859 79.765625 C-10.15089398 79.07212399 -15.07348545 78.0779683 -20 77 C-21.2684375 76.73316406 -22.536875 76.46632813 -23.84375 76.19140625 C-39.85284837 72.4077433 -56.20161681 64.67643181 -66 51 C-72.63523536 39.95652781 -75.37065039 29.78766888 -73 17 C-70.03917302 7.25841901 -63.73480284 -0.80841524 -55 -6 C-36.52112295 -14.83036415 -16.48890249 -11.93360258 0 0 Z " fill="#059DEB" transform="translate(259,610)"/>
<path d="M0 0 C9.23645503 7.1013156 15.31995763 16.88725308 16.9921875 28.4453125 C18.31942053 43.63675007 18.00486854 56.29860055 8.65625 69.12890625 C-0.26187876 79.33999792 -11.88280955 83.74514178 -25.11572266 84.97705078 C-40.38521209 85.94140777 -51.68825677 82.98457307 -63.65625 73.1640625 C-71.98771157 65.53287464 -76.58837162 53.76209647 -77.15234375 42.5703125 C-77.17565299 40.81916506 -77.17658259 39.06759078 -77.15625 37.31640625 C-77.14867676 36.39698242 -77.14110352 35.47755859 -77.13330078 34.53027344 C-76.96635406 27.65011893 -76.08243404 21.8545009 -72.71875 15.75390625 C-72.28304687 14.95984375 -71.84734375 14.16578125 -71.3984375 13.34765625 C-64.83448102 2.58707186 -54.86505051 -3.8129989 -42.88671875 -7.390625 C-28.20543422 -10.80394525 -12.62701482 -8.17886187 0 0 Z " fill="#FCFDFE" transform="translate(813.71875,695.24609375)"/>
<path d="M0 0 C3.52654113 2.55674232 5.21152778 5.16820836 5.96875 9.484375 C6.31322971 43.41562601 -8.99369861 92.00163275 -32.4921875 116.9296875 C-38.94870899 122.98424656 -45.22079443 123.57239329 -53.98828125 123.328125 C-58.23519033 122.70455214 -60.3948329 121.66840425 -63.265625 118.53125 C-67.60863164 112.48402556 -67.60863164 112.48402556 -67.37890625 108.94921875 C-66.0833913 105.79967796 -63.91561383 104.06449696 -61.4375 101.75 C-56.01549127 96.56261023 -51.70663529 91.04410587 -47.5 84.8125 C-48.61544189 84.68512451 -48.61544189 84.68512451 -49.75341797 84.55517578 C-55.52134081 82.99552944 -59.04851505 77.1226845 -62.10449219 72.25878906 C-63.61636506 69.52112835 -65.01371733 66.75302983 -66.375 63.9375 C-66.87966797 62.91245361 -67.38433594 61.88740723 -67.90429688 60.83129883 C-73.1986438 49.80666832 -77.40785516 38.39124608 -81.421875 26.84912109 C-82.15152962 24.79399334 -82.9130224 22.74993954 -83.703125 20.71728516 C-84.07953125 19.74452637 -84.4559375 18.77176758 -84.84375 17.76953125 C-85.18599609 16.90948486 -85.52824219 16.04943848 -85.88085938 15.16333008 C-86.56535357 12.56435742 -86.50796777 11.28463078 -85.5 8.8125 C-83.5390625 7.36328125 -83.5390625 7.36328125 -81.125 6.125 C-79.93777344 5.50044922 -79.93777344 5.50044922 -78.7265625 4.86328125 C-72.33760428 1.84814132 -66.87947082 2.40946637 -60.39453125 4.66796875 C-55.38533134 7.69414519 -53.43901028 12.8009694 -51.5 18.0625 C-51.08028931 19.16924072 -51.08028931 19.16924072 -50.65209961 20.29833984 C-49.58618935 23.13095678 -48.54159771 25.97084721 -47.5 28.8125 C-47.26291321 29.45908569 -47.02582642 30.10567139 -46.78155518 30.77185059 C-42.99336267 41.10872129 -39.23824068 51.45747196 -35.5 61.8125 C-32.96863164 52.02812172 -30.67244563 42.26356513 -28.875 32.3125 C-28.66335205 31.1577417 -28.4517041 30.0029834 -28.23364258 28.81323242 C-26.67830409 20.17454515 -25.39595096 11.54467881 -24.5 2.8125 C-16.33370604 -1.15550401 -8.81607418 -2.99116802 0 0 Z " fill="#FCFDFE" transform="translate(719.5,694.1875)"/>
<path d="M0 0 C1.14533203 -0.01160156 2.29066406 -0.02320313 3.47070312 -0.03515625 C14.37160743 0.00223965 23.96369007 1.99995184 32.3125 9.375 C38.30981746 16.54095963 40.49919529 23.68278825 41.1640625 32.8515625 C41.25969986 34.06131241 41.25969986 34.06131241 41.35726929 35.29550171 C41.49018349 36.99799105 41.61939622 38.70077296 41.74511719 40.40380859 C41.93541295 42.97183539 42.13859703 45.53859088 42.34375 48.10546875 C44.33102478 73.54246248 44.33102478 73.54246248 40.3125 79.375 C30.42169408 90.55591104 15.14002766 92.48735653 1.06787109 93.54345703 C-11.8212978 94.24309622 -23.26242186 92.42903149 -33.6875 84.375 C-40.41433776 77.36392966 -41.15277876 69.4220363 -40.99609375 60.01171875 C-40.45078984 53.58541567 -38.25922599 49.63627004 -33.6875 45.1875 C-22.1142397 36.25333043 -4.12501206 32.84319533 10.3125 33.375 C9.8175 29.91 9.8175 29.91 9.3125 26.375 C4.38807877 24.43790539 0.09484447 23.9549051 -5.125 23.9375 C-5.90689697 23.93435791 -6.68879395 23.93121582 -7.49438477 23.92797852 C-15.54711854 24.09019069 -22.26317042 26.36780143 -29.6875 29.375 C-30.6775 29.705 -31.6675 30.035 -32.6875 30.375 C-37.25675244 25.10278564 -39.13107773 21.70138464 -39.02734375 14.58984375 C-38.46289883 10.91121994 -36.59560257 9.54060829 -33.6875 7.375 C-23.87100717 0.42165091 -11.66877275 -0.11940757 0 0 Z " fill="#FCFDFE" transform="translate(581.6875,701.625)"/>
<path d="M0 0 C0.8235498 -0.00555908 1.64709961 -0.01111816 2.49560547 -0.0168457 C14.64207571 0.12592474 26.13764559 3.11934679 34.8984375 11.82421875 C40.8198222 20.05985643 41.58384562 28.63715696 42.27099609 38.4934082 C42.43553489 40.84689208 42.6237268 43.19749826 42.81640625 45.54882812 C43.40982873 53.07370547 43.82719687 60.60448538 43.953125 68.15234375 C43.98841309 70.04327759 43.98841309 70.04327759 44.02441406 71.97241211 C43.51617632 77.01096323 41.60266615 79.43989972 38 82.875 C23.31326901 94.35800781 2.47882742 94.58777679 -15.3125 93.3125 C-23.98090039 91.66361949 -31.21998123 87.2188395 -36.6875 80.3125 C-40.93933709 72.4629546 -41.89523811 63.57333114 -39.6953125 54.87109375 C-36.59280014 47.85612112 -30.75100882 43.24009037 -23.83984375 40.28125 C-17.86602865 37.98633687 -11.7736008 36.74647926 -5.5 35.5625 C-4.39462891 35.34207031 -3.28925781 35.12164063 -2.15039062 34.89453125 C2.53620084 33.98269895 6.89814445 33.17977964 11.6875 33.3125 C10.24869773 29.71549433 9.32456669 27.70744452 5.984375 25.63671875 C-3.74266309 21.72976862 -16.04721577 24.27763444 -25.47265625 28.21484375 C-26.07980469 28.49457031 -26.68695312 28.77429688 -27.3125 29.0625 C-30.50501246 30.39271352 -31.22840161 30.57698034 -34.3125 29.3125 C-37.13893947 25.81434497 -38.5748621 21.58919763 -38.8125 17.125 C-38.22370421 12.6354321 -37.69744707 11.29447718 -34.3125 8.3125 C-23.89381362 1.49558606 -12.15509969 0.06866652 0 0 Z " fill="#FCFDFE" transform="translate(1035.3125,668.6875)"/>
<path d="M0 0 C6.83375487 -0.2591816 12.290717 0.37427771 18.08984375 4.1953125 C22.19010705 8.50058897 23.24121769 11.14816545 23.27734375 17.0078125 C23.29152344 18.04550781 23.30570313 19.08320312 23.3203125 20.15234375 C23.08698802 23.23301783 22.39103261 25.41292842 21.08984375 28.1953125 C20.19265625 28.28167969 19.29546875 28.36804688 18.37109375 28.45703125 C8.08820313 29.61491873 -2.5620696 31.52126918 -11.91015625 36.1953125 C-11.66449556 40.32572963 -11.41754607 44.45606746 -11.16937256 48.58633423 C-11.07991022 50.07540008 -10.99059539 51.5644748 -10.90142822 53.05355835 C-10.40958664 61.25280384 -9.90284014 69.45036647 -9.33203125 77.64453125 C-9.28581635 78.31295044 -9.23960144 78.98136963 -9.19198608 79.67004395 C-8.97323529 82.82877632 -8.75021838 85.98709836 -8.52001953 89.14501953 C-8.00589501 96.50931024 -7.80423423 103.81355622 -7.91015625 111.1953125 C-12.55465946 112.9370012 -16.98311118 113.85420938 -21.91015625 114.1953125 C-23.09867188 114.28425781 -24.2871875 114.37320313 -25.51171875 114.46484375 C-37.02156625 114.95293393 -37.02156625 114.95293393 -41.16015625 111.8203125 C-47.58372421 104.30011007 -47.53449172 93.6960553 -48.078125 84.296875 C-48.16266434 82.98552582 -48.24720367 81.67417664 -48.33430481 80.3230896 C-48.51182455 77.56181176 -48.68176237 74.8002172 -48.84545898 72.03808594 C-49.05331633 68.53233375 -49.27460936 65.02760471 -49.50098705 61.52300453 C-49.71910651 58.13542872 -49.92992923 54.74742115 -50.140625 51.359375 C-50.21870895 50.11838043 -50.29679291 48.87738586 -50.37724304 47.5987854 C-50.71320487 41.92903005 -50.9848361 36.26274249 -51.08325195 30.58349609 C-51.09951126 29.64831146 -51.11577057 28.71312683 -51.13252258 27.74960327 C-50.67781369 22.52642624 -47.93374908 19.20395268 -44.32421875 15.62109375 C-32.03358894 5.39679253 -15.59085013 1.04636578 0 0 Z " fill="#FCFDFE" transform="translate(799.91015625,859.8046875)"/>
<path d="M0 0 C8.50503823 6.10502745 12.83315087 14.62650385 14.97265625 24.72265625 C17.63633663 41.49855058 16.52369995 58.48284323 7.1640625 73.03515625 C3.96685452 76.83918126 0.53395072 78.65074682 -4.375 79.25 C-14.70993263 79.97068521 -22.9159501 74.43705791 -30.75 68.3125 C-31.68972656 67.60287109 -31.68972656 67.60287109 -32.6484375 66.87890625 C-42.69719808 58.85353864 -49.70710408 47.44118776 -53.75 35.3125 C-54.73280185 23.96999996 -52.8125361 14.05029552 -45.5078125 5.09375 C-33.00017509 -7.58065591 -15.02317637 -9.21990924 0 0 Z " fill="#059DEB" transform="translate(623.75,258.6875)"/>
<path d="M0 0 C1.28197266 -0.05510742 1.28197266 -0.05510742 2.58984375 -0.11132812 C8.24661239 -0.15043021 11.32284286 0.947182 15.49560547 4.78149414 C18.88578112 9.15872094 19.28740671 13.98367122 19.65283203 19.34350586 C19.74105225 20.49592773 19.74105225 20.49592773 19.83105469 21.67163086 C20.0229542 24.20634434 20.20313662 26.74173672 20.3828125 29.27734375 C20.51391572 31.0527402 20.64558789 32.82809471 20.77780151 34.60340881 C21.05340964 38.32778389 21.32346127 42.05250698 21.58935547 45.77758789 C21.92777354 50.51523877 22.27773918 55.25194478 22.63171577 59.98845577 C22.90509537 63.65940335 23.17323879 67.33071914 23.439785 71.00216866 C23.56681941 72.74629029 23.6951738 74.49031637 23.82495499 76.23423576 C24.5750561 86.36946641 25.06021868 96.39326972 24.875 106.5625 C18.37253933 108.20619582 12.38580402 108.92735874 5.6875 108.9375 C4.39295898 108.97423828 4.39295898 108.97423828 3.07226562 109.01171875 C-2.46335971 109.03713096 -5.87073448 108.44879415 -10.125 104.5625 C-13.21271698 99.57290438 -13.75973727 95.15591216 -14.1796875 89.44921875 C-14.25597382 88.54241867 -14.33226013 87.63561859 -14.41085815 86.70133972 C-14.66248359 83.65598866 -14.8944908 80.60951794 -15.125 77.5625 C-15.30079908 75.33933112 -15.47691462 73.11618724 -15.65332031 70.89306641 C-16.11859675 64.94395027 -16.55708019 58.99318037 -16.98486328 53.04125977 C-17.25044808 49.36880401 -17.52554107 45.69713375 -17.80078125 42.02539062 C-18.74055305 29.18022132 -19.41186743 16.44284743 -19.125 3.5625 C-12.67239909 1.01603761 -6.92134581 0.01580216 0 0 Z " fill="#FBFDFE" transform="translate(858.125,858.4375)"/>
<path d="M0 0 C0.84626953 -0.020625 1.69253906 -0.04125 2.56445312 -0.0625 C7.40977235 -0.09285439 10.62270402 0.10736118 14.5625 3.25 C19.08479652 8.27477392 19.90839855 13.7221049 20.34033203 20.27807617 C20.42855225 21.46939651 20.42855225 21.46939651 20.51855469 22.68478394 C20.71041 25.30367371 20.8905539 27.92322307 21.0703125 30.54296875 C21.20136623 32.37279052 21.33303876 34.20256807 21.46530151 36.03230286 C21.74083896 39.86763431 22.01095214 43.70329542 22.27685547 47.53930664 C22.61629359 52.43419087 22.96589993 57.3282784 23.31921577 62.22217846 C23.59156676 66.00284638 23.86007082 69.78377945 24.127285 73.56481361 C24.25486888 75.36802101 24.38324487 77.17117255 24.51245499 78.97426414 C25.13785885 87.74552685 25.74157307 96.4500792 25.5625 105.25 C18.76919182 107.62446482 12.41434118 108.59398219 5.25 108.6875 C4.48574707 108.70941406 3.72149414 108.73132813 2.93408203 108.75390625 C-2.27964171 108.73568043 -5.53374327 107.99602918 -9.4375 104.25 C-14.28751733 96.00701036 -14.37282024 86.70517325 -14.88671875 77.4296875 C-14.98924995 75.80069903 -15.09326748 74.17180352 -15.19868469 72.54299927 C-15.47111721 68.27241367 -15.72358262 64.00087998 -15.97167969 59.7288208 C-16.2249338 55.42783601 -16.49701525 51.12804945 -16.76757812 46.828125 C-17.20944097 39.7683677 -17.63752181 32.70790604 -18.05547619 25.64669609 C-18.49849612 18.1800233 -18.96635909 10.71494394 -19.4375 3.25 C-12.61549584 0.96287465 -7.17014326 0.04348836 0 0 Z " fill="#FCFDFE" transform="translate(705.4375,869.75)"/>
<path d="M0 0 C3.2509946 2.60079568 4.87107282 4.80071845 6.1875 8.75 C8.02251473 27.16031174 -0.3472693 46.03626968 -10.8125 60.75 C-11.50085938 61.73419922 -11.50085938 61.73419922 -12.203125 62.73828125 C-17.56195952 69.68320759 -26.13104122 75.35476555 -34.8125 76.75 C-42.79744329 77.64134251 -49.29786396 76.70431238 -55.8125 71.75 C-62.68281881 63.77652024 -63.59298258 55.97676447 -63.04785156 45.81396484 C-61.74503778 34.38866639 -53.27506173 22.93661692 -44.4375 15.90625 C-43.23812326 15.00873813 -42.02943686 14.12355412 -40.8125 13.25 C-40.16531006 12.78150635 -39.51812012 12.3130127 -38.85131836 11.83032227 C-28.58334187 4.58079935 -12.8532272 -5.71254542 0 0 Z " fill="#059DEB" transform="translate(442.8125,1159.25)"/>
<path d="M0 0 C8.34662333 5.97040295 13.93666462 12.85249158 16.375 22.875 C18.05497058 33.54775424 15.75466551 41.89929595 10 51 C4.9709038 57.70955029 -2.71394971 62.45804703 -11 64 C-22.9263731 64.9979544 -32.7087554 62.82024861 -41.9921875 55.05078125 C-49.04248843 47.8495984 -51.92832094 39.54235677 -52.375 29.6875 C-52.16813049 20.35251314 -48.57245811 11.66009088 -42 5 C-29.99589861 -4.96566908 -14.03401632 -7.73430233 0 0 Z " fill="#059DEB" transform="translate(884,302)"/>
<path d="M0 0 C0.73734375 0.4228125 1.4746875 0.845625 2.234375 1.28125 C14.07879048 8.63295616 22.15929908 18.49429538 26.26953125 31.78125 C28.06250111 39.68182308 28.1745055 47.73227962 24.41015625 55.05859375 C21.26529777 59.38821886 17.04095292 62.31968236 12 64 C-0.32393552 65.30968653 -10.93566649 61.66856778 -20.5703125 54.05859375 C-21.37210938 53.37925781 -22.17390625 52.69992187 -23 52 C-23.65742187 51.45472656 -24.31484375 50.90945313 -24.9921875 50.34765625 C-34.52963139 41.67917947 -39.09483064 29.90083202 -40.375 17.3125 C-39.63211213 10.75032382 -37.82981157 4.69565014 -33 0 C-22.70806267 -7.09374185 -10.63253938 -6.14324498 0 0 Z " fill="#059DEB" transform="translate(1310,737)"/>
<path d="M0 0 C7.27972755 6.26331276 11.43535001 15.8198265 12.29785156 25.27587891 C13.04362676 38.45358598 13.04885136 50.95037657 4.5078125 61.71875 C-1.48096517 67.87512406 -9.36150119 71.34557951 -17.9296875 71.78125 C-20.33981243 71.79414388 -22.75000045 71.79714098 -25.16015625 71.79296875 C-27.05930786 71.79043091 -27.05930786 71.79043091 -28.99682617 71.7878418 C-29.96467041 71.7856665 -30.93251465 71.78349121 -31.9296875 71.78125 C-32.58321458 62.33242526 -33.23526972 52.88350043 -33.88544464 43.43444443 C-34.18739104 39.04690346 -34.48984482 34.65939869 -34.79345703 30.27197266 C-35.08642601 26.03807867 -35.37806365 21.80409489 -35.66877747 17.57004547 C-35.7799384 15.95448791 -35.89157946 14.3389633 -36.00370789 12.7234726 C-36.16064316 10.46124153 -36.31587288 8.19889942 -36.47070312 5.93652344 C-36.55952759 4.64856873 -36.64835205 3.36061401 -36.73986816 2.03363037 C-36.88076743 -0.38054948 -36.9296875 -2.80046198 -36.9296875 -5.21875 C-23.44799861 -8.81386704 -11.56368235 -8.21948153 0 0 Z " fill="#079DEA" transform="translate(497.9296875,894.21875)"/>
<path d="M0 0 C14.29118991 8.92681573 21.92813508 23.52301485 26.73828125 39.30737305 C27.2967478 42.03323613 27.29935321 44.57677085 27.28515625 47.359375 C27.28032227 49.03193359 27.28032227 49.03193359 27.27539062 50.73828125 C27.26282227 52.47658203 27.26282227 52.47658203 27.25 54.25 C27.24548828 55.42433594 27.24097656 56.59867188 27.23632812 57.80859375 C27.22455094 60.70578072 27.20810326 63.60286454 27.1875 66.5 C25.25917556 64.10954988 23.34843387 61.71570391 21.51171875 59.25390625 C15.81228375 51.62292049 10.55943832 46.05044038 1.1875 43.5 C-1.79466735 43.13675106 -4.74833862 43.0925742 -7.75 43.0625 C-17.90926553 42.70077641 -24.62945967 40.43553011 -32.1484375 33.3359375 C-36.9905906 27.99365591 -37.36733447 22.21097656 -37.15234375 15.296875 C-36.35906715 8.76829975 -31.64435203 5.18287916 -27.0078125 1.015625 C-19.14072278 -4.41574655 -8.30278056 -4.25546413 0 0 Z " fill="#FCFDFE" transform="translate(629.8125,601.5)"/>
<path d="M0 0 C4.69231017 4.17653345 6.91253803 10.77550679 7.375 16.9375 C7.00022637 23.30865178 3.60085357 29.71041726 -1.125 33.9375 C-7.24787961 37.93611525 -12.99793124 38.78333162 -20.1875 37.9375 C-26.50202049 36.33606463 -30.44249119 33.41695078 -34.03125 28.00390625 C-37.50289066 21.79952142 -37.96101028 15.74114176 -36.1875 8.9375 C-33.38769108 3.10076479 -29.92505843 -1.06899126 -24.1875 -4.0625 C-15.26853805 -6.80679598 -7.69624477 -4.97992308 0 0 Z " fill="#059DEB" transform="translate(702.1875,1198.0625)"/>
<path d="M0 0 C4.89601245 2.80579175 8.4943832 6.84065358 10.40625 12.1640625 C11.38142697 18.10305008 11.31851397 23.38954349 8.21875 28.6640625 C4.74441815 33.38132434 0.95585113 36.27687825 -4.59375 38.1640625 C-11.98712054 39.03031572 -17.64658424 38.77615023 -23.59375 34.1640625 C-28.45602131 29.41879772 -30.6528057 25.03600197 -30.96875 18.2890625 C-30.8174292 12.28963779 -29.0911023 8.62248058 -24.83984375 4.4375 C-17.80751716 -1.75799441 -9.05215363 -2.91741096 0 0 Z " fill="#FBFDFE" transform="translate(712.59375,821.8359375)"/>
<path d="M0 0 C4.82988912 3.72888213 7.94915502 7.78902369 8.87890625 13.90234375 C9.13330612 20.41005651 8.36708847 25.70081555 4.4375 31 C-0.56352025 36.00102025 -6.12756418 37.29244124 -13.0625 37.375 C-18.42431892 37.27751238 -21.549445 36.81240225 -25.5625 33 C-31.4274145 26.84585684 -32.03763056 21.87050111 -31.96875 13.52734375 C-31.18835463 6.75141088 -27.58735909 3.68738257 -22.5625 -0.5 C-15.97775537 -3.77037428 -6.38485416 -3.58085927 0 0 Z " fill="#FCFDFE" transform="translate(866.5625,812)"/>
<path d="M0 0 C7.89701246 3.26180949 12.31162704 9.52921625 16 17 C18.54163213 23.49043399 18.45884156 30.23055536 17 37 C14.98170883 40.89738984 12.89069459 43.88790865 9 46 C3.33437727 47.49657959 0.10933816 46.78691172 -5 44 C-11.82428118 39.68259762 -15.23786311 32.55179272 -17.6484375 24.95703125 C-18.87138113 18.14931171 -18.75806299 11.69787909 -15.1875 5.66015625 C-11.10916699 -0.04146062 -6.72046793 -1.39006421 0 0 Z " fill="#059DEB" transform="translate(1068,1198)"/>
<path d="M0 0 C6.12768193 3.00603265 9.02100165 7.2098547 11.25 13.5625 C13.18795103 22.75895854 13.1192646 31.91051363 8 40 C5.61876423 42.88634639 4.55323733 43.81558756 1 45 C-4.61875724 45.3684431 -8.15711379 45.19190228 -13 42 C-19.13770868 36.03765443 -20.19962417 28.68112776 -20.4375 20.4375 C-20.30567469 14.45742445 -19.80488186 9.74692656 -16 5 C-10.82512264 0.19475674 -6.93121289 -0.82987541 0 0 Z " fill="#089CE9" transform="translate(788,711)"/>
<path d="M0 0 C19.157054 -0.63856847 36.17327478 5.64509474 50.1875 18.75 C65.94109136 35.32938445 68.74886145 56.61448024 68.375 78.515625 C67.74112645 94.08174821 61.63047654 110.23670811 50 121 C40.7977438 128.54235556 31.51606722 133.40911429 20.1875 136.8125 C19.45772949 137.03188232 18.72795898 137.25126465 17.97607422 137.47729492 C14.23617197 138.54380861 10.89475756 139.26781241 7 139 C9.9727005 137.41655149 13.03166938 136.19343964 16.17724609 134.99658203 C33.11848583 128.50293561 45.3605536 119.6135068 53.47265625 102.98046875 C61.93873241 83.75284971 61.7290717 59.64238654 54.25244141 40.04003906 C48.00301214 25.05521971 37.95734695 13.68846346 22.9921875 7.17578125 C15.51487748 4.1489974 8.03148662 1.98691997 0 1 C0 0.67 0 0.34 0 0 Z " fill="#034073" transform="translate(490,856)"/>
<path d="M0 0 C4.31560574 1.56096378 6.23534252 4.20233084 8.265625 8.1796875 C9.69442589 11.72128971 9.69178937 14.28873157 8.2578125 17.8359375 C4.21349577 25.30463919 -2.93737667 29.97580506 -9.61328125 34.9453125 C-12.16169295 37.13919884 -13.8310557 39.32990408 -15.6875 42.125 C-17.37145501 44.64159795 -18.8580143 46.8580143 -21 49 C-21.48112102 47.10988171 -21.95895667 45.21887735 -22.421875 43.32421875 C-22.78537212 41.8628621 -23.16808674 40.40601781 -23.578125 38.95703125 C-26.04953723 29.54801183 -26.53224793 19.1723642 -22.4140625 10.1953125 C-16.69041956 1.3094359 -10.07262381 -0.77369429 0 0 Z " fill="#FAFDFE" transform="translate(709,614)"/>
<path d="M0 0 C12.69183549 -0.47693745 25.0605231 2.11937409 35.18359375 10.23828125 C42.57749699 17.40957235 46.13985635 26.64383353 47.0625 36.75 C47.13774902 37.49878418 47.21299805 38.24756836 47.29052734 39.01904297 C47.54675188 41.67796684 47.77675275 44.33810219 48 47 C48.09168457 48.09151367 48.18336914 49.18302734 48.27783203 50.30761719 C49.20463661 61.63941051 50.12990345 73.00417256 50.375 84.375 C50.40335938 85.53773438 50.43171875 86.70046875 50.4609375 87.8984375 C49.53770149 94.11072045 45.16935257 98.35111796 40.5390625 102.26171875 C31.8917404 108.18180849 20.57418516 112.52870926 10 112 C12.95785622 110.02809585 15.1866893 109.25350044 18.5625 108.25 C26.73324847 105.56264379 35.11222388 101.96237707 39.90112305 94.43041992 C44.30940429 84.68048884 40.37846023 68.13949542 39.56567383 57.7434082 C39.39680574 55.53835251 39.23698164 53.33258567 39.08618164 51.1262207 C37.92196016 28.98269271 37.92196016 28.98269271 26 11 C18.65920054 5.00613622 9.16478981 2.70033206 0 1 C0 0.67 0 0.34 0 0 Z " fill="#024174" transform="translate(627,873)"/>
<path d="M0 0 C9.64129757 -0.61759201 9.64129757 -0.61759201 14.4375 1.5625 C19.61397218 6.48646134 21.45346885 11.203344 21.94140625 18.23046875 C21.99426788 18.92255432 22.04712952 19.61463989 22.10159302 20.32769775 C22.271918 22.61344068 22.41744815 24.90002545 22.5625 27.1875 C22.6773735 28.80682328 22.79369833 30.42604417 22.91137695 32.04516602 C23.16032166 35.51582231 23.39809731 38.98701112 23.62792969 42.45898438 C23.94492791 47.23032849 24.28624186 51.99960197 24.63496399 56.76872253 C24.99204644 61.65787181 25.33975705 66.54767924 25.6875 71.4375 C25.78769943 72.82900772 25.78769943 72.82900772 25.8899231 74.24862671 C26.64679583 84.85461332 27.20982432 95.36113001 27 106 C26.04125977 106.23968506 25.08251953 106.47937012 24.09472656 106.72631836 C22.9909668 107.0022583 21.88720703 107.27819824 20.75 107.5625 C16.40576658 108.64855836 14.41274708 109.10318677 10 108 C14.455 107.01 14.455 107.01 19 106 C18.94180084 105.23310349 18.88360168 104.46620697 18.82363892 103.67607117 C18.2648074 96.3117105 17.70621527 88.94733172 17.1478672 81.58293438 C16.80535801 77.06549244 16.4627009 72.54806179 16.11975479 68.030653 C16.00866031 66.56610243 15.89772639 65.10153968 15.78695297 63.6369648 C15.51126456 59.99299397 15.23336737 56.34922005 14.95074463 52.70578003 C14.42066218 45.83555979 13.92688696 38.96773234 13.53027344 32.08837891 C13.45449066 30.85916214 13.37870789 29.62994537 13.30062866 28.36347961 C13.16236806 26.08923514 13.03747064 23.81411876 12.92910767 21.53825378 C12.52054761 15.0479035 11.4434442 10.55893238 8 5 C5.55690423 3.08255407 5.55690423 3.08255407 3 2 C2.01 1.34 1.02 0.68 0 0 Z " fill="#034275" transform="translate(712,869)"/>
<path d="M0 0 C9.64129757 -0.61759201 9.64129757 -0.61759201 14.4375 1.5625 C19.61397218 6.48646134 21.45346885 11.203344 21.94140625 18.23046875 C21.99426788 18.92255432 22.04712952 19.61463989 22.10159302 20.32769775 C22.271918 22.61344068 22.41744815 24.90002545 22.5625 27.1875 C22.6773735 28.80682328 22.79369833 30.42604417 22.91137695 32.04516602 C23.16032166 35.51582231 23.39809731 38.98701112 23.62792969 42.45898438 C23.94492791 47.23032849 24.28624186 51.99960197 24.63496399 56.76872253 C24.99204644 61.65787181 25.33975705 66.54767924 25.6875 71.4375 C25.78769943 72.82900772 25.78769943 72.82900772 25.8899231 74.24862671 C26.64679583 84.85461332 27.20982432 95.36113001 27 106 C22.8803623 107.29243536 19.33168317 108.26252625 15 108 C16.98 107.505 16.98 107.505 19 107 C18.15415806 94.71608129 17.29454426 82.43321126 16.41737652 70.15148735 C16.01049612 64.44844433 15.60835203 58.74514978 15.21704102 53.04101562 C14.83917069 47.53536198 14.44884765 42.03071961 14.04990578 36.52655411 C13.89995074 34.42735083 13.7544717 32.32782283 13.61356163 30.22799301 C13.41529689 27.28496005 13.20109086 24.34348803 12.9831543 21.40185547 C12.92848495 20.53510696 12.87381561 19.66835846 12.81748962 18.77534485 C12.34139086 12.67450212 11.22926352 8.05778171 6.5625 3.75 C4.4085433 2.27900518 2.33753314 1.13154471 0 0 Z " fill="#034175" transform="translate(864,858)"/>
<path d="M0 0 C8.66725664 -0.44070796 8.66725664 -0.44070796 13 3 C17.70807886 10.06211829 15.79196275 22.13380396 14.48291016 30.17724609 C12.98965402 37.54046634 11.04449432 44.77339577 9 52 C8.79745605 52.74556152 8.59491211 53.49112305 8.38623047 54.25927734 C2.10476913 77.28007534 -7.4149609 107.6799728 -28 122 C-31.79763266 123.89881633 -34.77382501 124.19656628 -39 124 C-37 122 -37 122 -33.8125 120.375 C-11.72340543 107.64877268 -3.15024163 68.60824136 3.17041016 46.11425781 C9.1826264 25.5776376 9.1826264 25.5776376 6.640625 5.20703125 C4.68555796 2.57700059 3.09966633 1.92152242 0 1 C0 0.67 0 0.34 0 0 Z " fill="#044174" transform="translate(716,693)"/>
<path d="M0 0 C4.70699441 -0.47069944 8.61007379 -0.85562871 12.4375 2.25 C16.69246809 6.81630721 17.29299057 10.04527514 17.77783203 16.26513672 C17.83664551 16.99116089 17.89545898 17.71718506 17.95605469 18.46520996 C18.14844863 20.86945307 18.32850047 23.27443587 18.5078125 25.6796875 C18.63898491 27.37008412 18.77065645 29.06044208 18.90280151 30.75076294 C19.17879961 34.30626599 19.44869923 37.86216676 19.71435547 41.41845703 C20.05040644 45.91078001 20.40135123 50.40178574 20.75667191 54.89262009 C22.1783065 72.93886856 23.53831436 90.88195097 23 109 C16.48214286 111.33928571 16.48214286 111.33928571 13 110 C14.485 109.505 14.485 109.505 16 109 C16.2308914 98.45097812 15.51723792 87.99618596 14.79296875 77.48046875 C14.73051783 76.56244287 14.6680669 75.644417 14.60372353 74.69857216 C14.27409913 69.85317091 13.93979393 65.00812083 13.60131836 60.16333008 C13.25378667 55.17663314 12.92177977 50.18902822 12.59330273 45.20104504 C12.33658287 41.34420925 12.06867769 37.48820852 11.79772377 33.63234901 C11.67041338 31.79351161 11.54723641 29.95438297 11.42836571 28.1149807 C11.26117595 25.54466798 11.07816559 22.97593377 10.89135742 20.40698242 C10.84603882 19.65618912 10.80072021 18.90539581 10.75402832 18.1318512 C10.32301868 12.54792155 9.32606763 7.10799879 5 3.1875 C4.34 2.795625 3.68 2.40375 3 2 C2.01 1.34 1.02 0.68 0 0 Z " fill="#034275" transform="translate(509,686)"/>
<path d="M0 0 C12.90681896 -0.6245235 24.40872663 3.83420359 34.25 12.1875 C43.25269965 20.70967879 47.97640655 30.80401329 48.5625 43.125 C48.44573517 47.4593105 48.28931883 50.62289253 45.625 54.125 C36.8374482 61.76414156 23.6402705 63.12002817 12.625 65.5625 C10.03963808 66.14345572 7.45481201 66.72674869 4.87005615 67.31039429 C3.20738847 67.68571644 1.54450968 68.06010477 -0.11859131 68.4335022 C-6.43870557 69.85692452 -12.72743569 71.37844004 -19 73 C-15.72744376 78.78159434 -12.11353916 80.62661697 -6 83 C-3.60120513 83.58062703 -1.47256947 83.83874547 1 84 C1 84.33 1 84.66 1 85 C-9.64637636 85.48638268 -17.47119035 84.72986948 -25.6875 77.59765625 C-27.20383657 75.7518775 -27.49299943 74.30489806 -28 72 C-22.77562177 70.79050262 -17.55099971 69.58206543 -12.32617188 68.37451172 C-10.55755367 67.96560668 -8.78899658 67.55643715 -7.02050781 67.14697266 C-5.30273216 66.74928512 -3.58485677 66.3520281 -1.86688232 65.9552002 C-0.14397269 65.55697493 1.57864232 65.15747286 3.30096436 64.75671387 C7.54514579 63.77396473 11.79172924 62.82595578 16.05957031 61.95117188 C16.86689606 61.78248596 17.6742218 61.61380005 18.50601196 61.44000244 C20.01318004 61.12715216 21.52235222 60.82372685 23.03378296 60.53216553 C28.85292099 59.31355806 34.09640778 57.39408837 37.91015625 52.59765625 C41.10507389 44.98252997 39.10370032 36.34743244 36.32421875 28.88671875 C31.33196084 18.00389104 23.18521198 9.43223536 12 5 C8.02443667 3.58505197 4.02666355 2.26168791 0 1 C0 0.67 0 0.34 0 0 Z " fill="#054275" transform="translate(965,849)"/>
<path d="M0 0 C-0.680625 0.53625 -1.36125 1.0725 -2.0625 1.625 C-4.38259327 3.91162152 -4.38259327 3.91162152 -3.75 7.25 C-3.5025 8.1575 -3.255 9.065 -3 10 C2.0409075 11.89440556 6.95287574 12.69219174 12.25 13.4375 C24.32285979 15.25916831 38.11243595 17.86555917 47 27 C53.81297907 37.11927773 55.21520284 45.96513239 54 58 C51.78211473 66.30152383 45.85340421 72.78440534 38.7890625 77.46484375 C30.779996 81.84189172 20.19652347 85.47296406 11 85 C14.29514668 83.24471606 17.67600964 82.00859869 21.1875 80.75 C31.08931749 76.93136186 38.08193017 72.67489147 43 63 C46.2239369 54.99035746 46.44051292 45.74521903 43.9375 37.5 C39.14765239 27.08728781 32.34876361 23.23440145 22.02734375 19.078125 C14.92727958 16.54958602 7.91305832 15.25281331 0.49609375 14.14453125 C-9.40885938 12.59114062 -9.40885938 12.59114062 -13 9 C-13.375 6.5625 -13.375 6.5625 -13 4 C-9.1524397 0.1524397 -5.23054837 -0.14529301 0 0 Z " fill="#054274" transform="translate(1069,869)"/>
<path d="M0 0 C3.45761325 0.0723816 5.47745071 0.51276909 8.1875 2.6875 C12.37847798 7.18513491 13.25671646 10.4982257 13.1328125 16.54296875 C12.54511348 20.98669294 10.9135033 24.84609493 9.1953125 28.96484375 C7.6457634 32.68794956 6.27456626 36.44700501 4.9375 40.25 C4.51855469 41.43207031 4.09960938 42.61414063 3.66796875 43.83203125 C3.36503906 44.69183594 3.06210937 45.55164063 2.75 46.4375 C0.57999234 44.26749234 -0.15678196 42.63353861 -1.34375 39.82421875 C-1.73433594 38.90576172 -2.12492188 37.98730469 -2.52734375 37.04101562 C-2.93082031 36.07873047 -3.33429687 35.11644531 -3.75 34.125 C-4.15347656 33.17431641 -4.55695312 32.22363281 -4.97265625 31.24414062 C-6.07326542 28.6451774 -7.16899416 26.04467733 -8.25 23.4375 C-8.61625488 22.5599707 -8.98250977 21.68244141 -9.35986328 20.77832031 C-10.90248908 16.7216291 -10.82355389 12.70501405 -10.25 8.4375 C-7.66951908 3.62060229 -5.66319256 0.16373176 0 0 Z " fill="#FAFDFE" transform="translate(664.25,572.5625)"/>
<path d="M0 0 C0 0.66 0 1.32 0 2 C-6.435 3.98 -6.435 3.98 -13 6 C-12.59136652 12.00994898 -12.18241725 18.01987635 -11.77319336 24.02978516 C-11.63443771 26.06819091 -11.49576374 28.10660223 -11.35717773 30.14501953 C-11.22257133 32.1247541 -11.08784251 34.10448034 -10.95298767 36.084198 C-10.82046222 38.03040335 -10.68826926 39.97663136 -10.55641174 41.92288208 C-10.27779635 46.01851298 -9.99594352 50.11349886 -9.68139648 54.20654297 C-9.17985585 60.77952897 -8.86298258 67.28307401 -8.9375 73.875 C-8.94201172 74.67035156 -8.94652344 75.46570313 -8.95117188 76.28515625 C-8.96264768 78.19013913 -8.98056206 80.09508172 -9 82 C-13.455 82.495 -13.455 82.495 -18 83 C-17.98477295 81.8321698 -17.98477295 81.8321698 -17.96923828 80.64074707 C-17.90954329 72.45857433 -18.27311642 64.37660021 -18.875 56.21875 C-18.96378418 54.96163208 -19.05256836 53.70451416 -19.14404297 52.40930176 C-19.377587 49.11003052 -19.61482197 45.81105573 -19.85424805 42.51220703 C-20.1924246 37.84344458 -20.52475623 33.17426675 -20.85595703 28.50500488 C-21.03192939 26.0285373 -21.20990742 23.55221122 -21.39013672 21.0760498 C-21.47021973 19.95718384 -21.55030273 18.83831787 -21.6328125 17.68554688 C-21.70387207 16.70549683 -21.77493164 15.72544678 -21.84814453 14.71569824 C-21.99235158 12.13678008 -22.02763189 9.58225912 -22 7 C-15.23796622 3.30001925 -7.83708974 0 0 0 Z " fill="#034175" transform="translate(809,889)"/>
<path d="M0 0 C14.50415448 -0.38113107 25.48292784 0.86677572 37.8125 8.8125 C44.77445728 15.77445728 47.15642774 23.89038702 47.8515625 33.4765625 C47.94719986 34.68631241 47.94719986 34.68631241 48.04476929 35.92050171 C48.17768349 37.62299105 48.30689622 39.32577296 48.43261719 41.02880859 C48.62291295 43.59683539 48.82609703 46.16359088 49.03125 48.73046875 C51.01795229 74.16013463 51.01795229 74.16013463 47 80 C40.61555575 87.39813038 30.32654305 90.94816053 21 93 C17.5625 93.125 17.5625 93.125 15 93 C18.16047484 91.28431366 21.30674217 90.26692071 24.75 89.25 C31.21469056 87.12667673 36.49825069 84.40310354 40.58496094 78.84399414 C42.35933869 75.27778875 42.33763453 72.81047121 42.26171875 68.8359375 C42.24993088 68.14156586 42.23814301 67.44719421 42.22599792 66.73178101 C42.05703484 59.1289181 41.59575761 51.54109434 40.99291992 43.96142578 C40.81109228 41.60677012 40.65860385 39.25122988 40.50585938 36.89453125 C39.73309643 26.36945995 38.08672263 17.77351091 30.3125 10.125 C21.26122758 2.98809689 11.09223766 2.04591819 0 1 C0 0.67 0 0.34 0 0 Z " fill="#064476" transform="translate(1036,668)"/>
<path d="M0 0 C11.31984468 -0.83166206 22.82267565 1.3947245 32.09765625 8.234375 C39.96541672 15.53669068 42.10282199 24.31136363 42.8515625 34.609375 C42.94719986 35.82056 42.94719986 35.82056 43.04476929 37.05621338 C43.17749279 38.75693713 43.30671878 40.45793709 43.43261719 42.15917969 C43.62346055 44.72926827 43.82643824 47.29817841 44.03125 49.8671875 C45.91564933 74.02808825 45.91564933 74.02808825 43 79.1875 C36.33342895 86.90417532 23.88508727 91.72450487 14 93 C10.4375 93.125 10.4375 93.125 8 93 C11 91 11 91 14.4375 90.25 C22.41209107 88.37449432 30.87211176 84.5424781 36 78 C39.15917297 68.52248109 36.68716167 56.2859006 35.93798828 46.40869141 C35.74989084 43.8735288 35.58394815 41.33747523 35.41796875 38.80078125 C34.67359302 28.42078341 33.90275771 17.68323667 26 10 C18.29473827 4.03290196 9.55757566 1.88496071 0 1 C0 0.67 0 0.34 0 0 Z " fill="#034276" transform="translate(587,701)"/>
<path d="M0 0 C-0.01571045 0.88800293 -0.01571045 0.88800293 -0.03173828 1.79394531 C-0.23201684 14.95148635 0.2518923 27.76376255 1.75634766 40.83251953 C3.11149688 52.88764458 3.10965577 64.88912892 3 77 C0.69 77 -1.62 77 -4 77 C-5.44576401 67.69593541 -6.45779107 58.48238236 -7.0703125 49.0859375 C-7.15626678 47.82786285 -7.24222107 46.56978821 -7.33078003 45.27359009 C-7.55482623 41.97771547 -7.77427909 38.6815788 -7.99157715 35.38525391 C-8.17069099 32.68658358 -8.35476928 29.98826182 -8.53901863 27.28993797 C-8.75967314 24.05539821 -8.9775725 20.8206746 -9.1953125 17.5859375 C-9.27653351 16.3818222 -9.35775452 15.17770691 -9.44143677 13.93710327 C-9.51506439 12.82138947 -9.58869202 11.70567566 -9.66455078 10.55615234 C-9.76209152 9.08727066 -9.76209152 9.08727066 -9.86160278 7.5887146 C-9.97887595 5.39512452 -10 3.19672266 -10 1 C-6.78548731 -0.60725635 -3.56387464 -0.05748185 0 0 Z " fill="#024074" transform="translate(471,888)"/>
<path d="M0 0 C11.09634818 -0.72367488 20.22770874 3.92078155 28.9375 10.453125 C36.41990374 17.06703545 42.27131715 29.11828903 43.18481445 38.99902344 C43.26729189 41.12898453 43.27779151 43.24367874 43.25 45.375 C43.23984863 46.50035156 43.23984863 46.50035156 43.22949219 47.6484375 C42.98156729 60.93259964 38.64320166 72.41983505 29.10546875 81.87890625 C22.99086541 87.13133917 15.79712091 90.13568217 8 92 C5.58203125 91.625 5.58203125 91.625 4 91 C4.76183594 90.72027344 5.52367187 90.44054687 6.30859375 90.15234375 C18.31154333 85.4920225 26.18242091 79.72558687 32 68 C34.5943765 61.8089929 35.46361616 56.30898396 35.3125 49.625 C35.30049561 48.79427979 35.28849121 47.96355957 35.27612305 47.10766602 C34.97261007 33.87062539 32.2699879 22.73901511 23.00390625 12.8125 C16.37763057 6.81914344 8.39516552 3.71326642 0 1 C0 0.67 0 0.34 0 0 Z " fill="#064376" transform="translate(795,687)"/>
<path d="M0 0 C9.23713045 -0.75064717 18.14787224 0.68492211 25.91015625 5.98828125 C32.35221054 11.48157939 37.34120476 17.78962762 38.26538086 26.50170898 C38.33120361 27.48985596 38.39702637 28.47800293 38.46484375 29.49609375 C38.5417041 30.60227051 38.61856445 31.70844727 38.69775391 32.84814453 C38.81642822 34.62487549 38.81642822 34.62487549 38.9375 36.4375 C39.5211016 44.85453031 40.19382945 53.23942717 41.125 61.625 C42.0859279 70.4369515 42.20647589 79.14447856 42 88 C38.535 88.495 38.535 88.495 35 89 C34.9498877 88.14172607 34.89977539 87.28345215 34.84814453 86.39916992 C33.95970714 71.26249338 33.0559744 56.12603337 32 41 C31.9292627 39.9174292 31.85852539 38.8348584 31.78564453 37.71948242 C30.93827996 25.96855693 29.19785434 16.40459932 20.125 8.125 C13.9584345 3.93173546 7.24311993 2.42515091 0 1 C0 0.67 0 0.34 0 0 Z " fill="#034073" transform="translate(947,675)"/>
<path d="M0 0 C0.95619733 3.99795892 1.1039592 7.70803922 1.0625 11.8125 C1.05347656 12.97394531 1.04445313 14.13539063 1.03515625 15.33203125 C1.02355469 16.21246094 1.01195312 17.09289062 1 18 C-6.49794456 21.79128574 -13.60979338 23.22059362 -22 22 C-25.48711143 20.30823307 -26.82335268 19.26497098 -29 16 C-29.5 12.625 -29.5 12.625 -29 9 C-23.41324514 1.97665103 -13.73920211 1.4370873 -5.3125 0.3125 C-2 0 -2 0 0 0 Z " fill="#0E9BE4" transform="translate(631,938)"/>
<path d="M0 0 C3.56186928 2.45373217 6.46921741 5.2813144 8.8125 8.9375 C8.8125 9.9275 8.8125 10.9175 8.8125 11.9375 C4.50798485 12.91829979 0.20295977 13.89682079 -4.10253906 14.87329102 C-5.56524427 15.20535677 -7.02781169 15.53803012 -8.49023438 15.87133789 C-10.59989516 16.35204738 -12.7100521 16.83052428 -14.8203125 17.30859375 C-16.08762207 17.59661865 -17.35493164 17.88464355 -18.66064453 18.18139648 C-21.82788743 18.8604046 -24.98797989 19.43582558 -28.1875 19.9375 C-27.84480549 13.5405358 -26.64387378 8.72019863 -22.1875 3.9375 C-15.17456205 -1.11720048 -8.22808292 -2.74269431 0 0 Z " fill="#0C9EE9" transform="translate(960.1875,877.0625)"/>
<path d="M0 0 C3.58552881 1.63687185 4.79315055 2.68972583 7 6 C7.36851472 9.39033542 7.19566005 11.53258988 5.875 14.6875 C3.4425553 17.68751513 1.64440447 18.67476201 -2 20 C-3.66396418 20.1569267 -5.33137447 20.27964997 -7 20.375 C-12.28557486 20.75651518 -14.33103922 22.24155237 -18 26 C-18.99882422 27.0011744 -19.99854121 28.00146092 -21 29 C-21.54666389 19.30177759 -20.43414931 12.46348279 -13.9375 5 C-9.54296965 0.28631382 -6.48989984 -0.71002743 0 0 Z " fill="#F8FCFE" transform="translate(714,577)"/>
<path d="M0 0 C-0.66 0.66 -1.32 1.32 -2 2 C-3.21362422 13.20332834 -1.36396627 25.12249397 -0.5 36.3125 C-0.28385891 39.13853272 -0.06919301 41.96465201 0.14196777 44.7910614 C0.27246702 46.53544272 0.40581868 48.27961402 0.54260254 50.02351379 C0.919453 55.03235817 1.06049846 59.97682762 1 65 C-3.625 67.125 -3.625 67.125 -7 66 C-6.97389648 64.98280884 -6.97389648 64.98280884 -6.94726562 63.94506836 C-6.79670594 52.77586972 -7.68670876 41.69476498 -8.5 30.5625 C-8.7156761 27.57319072 -8.93000656 24.58379806 -9.14196777 21.59422302 C-9.2731567 19.74758807 -9.40657904 17.90110996 -9.54260254 16.05482483 C-10.21140342 6.71802141 -10.21140342 6.71802141 -10 3 C-7.05843777 -0.39411027 -4.30855278 -0.29376496 0 0 Z " fill="#024074" transform="translate(937,701)"/>
<path d="M0 0 C-0.49365555 0.40644745 -0.9873111 0.8128949 -1.4959259 1.23165894 C-3.40531238 3.47652608 -3.29385765 4.39771194 -3.06518555 7.29345703 C-3.0048967 8.15931427 -2.94460785 9.02517151 -2.88249207 9.91726685 C-2.80138687 10.85464691 -2.72028168 11.79202698 -2.63671875 12.7578125 C-2.53046928 14.22249466 -2.53046928 14.22249466 -2.42207336 15.71676636 C-2.1922084 18.85418213 -1.94105313 21.98941709 -1.6875 25.125 C-1.37035247 29.21032285 -1.06269079 33.29626725 -0.76171875 37.3828125 C-0.68790985 38.37315491 -0.61410095 39.36349731 -0.53805542 40.3838501 C0.06631962 48.93392994 0.17650455 57.43335515 0 66 C-5.38392857 68.33928571 -5.38392857 68.33928571 -9 67 C-8.01 67 -7.02 67 -6 67 C-6.0501123 66.37518738 -6.10022461 65.75037476 -6.15185547 65.10662842 C-6.67659257 58.55232286 -7.19465072 51.99751278 -7.70898438 45.44238281 C-7.901312 43.00214543 -8.0952928 40.56203772 -8.29101562 38.12207031 C-8.57345511 34.59734079 -8.84977428 31.07217428 -9.125 27.546875 C-9.21249512 26.4713739 -9.29999023 25.3958728 -9.39013672 24.28778076 C-9.62841234 21.19289448 -9.82408554 18.09901826 -10 15 C-10.07573242 13.89644165 -10.15146484 12.7928833 -10.22949219 11.65588379 C-10.27493164 10.58253784 -10.32037109 9.50919189 -10.3671875 8.40332031 C-10.4172998 7.43759094 -10.46741211 6.47186157 -10.51904297 5.47686768 C-10 3 -10 3 -7.65283203 1.17401123 C-4.84525212 -0.0684837 -3.03191069 -0.25987806 0 0 Z " fill="#014073" transform="translate(886,704)"/>
<path d="M0 0 C5.2518167 -0.315109 8.54814877 0.1310292 13 3 C16.69895435 6.9555345 18.38442268 10.96323019 20.1640625 15.96875 C20.58128067 17.1056427 20.58128067 17.1056427 21.00692749 18.26550293 C21.88859014 20.6738414 22.75707332 23.08668164 23.625 25.5 C24.21525463 27.12141846 24.80639202 28.74251585 25.3984375 30.36328125 C26.23346904 32.64954754 27.06722976 34.93617878 27.89395142 37.22546387 C28.94101262 40.12346926 30.00121195 43.00293268 31.17822266 45.85107422 C32.13802812 48.36093985 32.09591521 49.97601773 31.75 52.625 C31.66234375 53.38039063 31.5746875 54.13578125 31.484375 54.9140625 C31 57 31 57 29 60 C25.95136833 52.99070015 23.19074099 45.91168589 20.58984375 38.7265625 C20.2930069 37.9081488 19.99617004 37.08973511 19.69033813 36.246521 C18.45777184 32.84250262 17.22821418 29.43747164 16.00854492 26.02880859 C15.10531678 23.50873767 14.1920772 20.99247611 13.27734375 18.4765625 C12.87249001 17.33267563 12.87249001 17.33267563 12.4594574 16.16567993 C10.3457354 10.38486267 8.28051857 5.31568379 2.75 2.125 C1.8425 1.75375 0.935 1.3825 0 1 C0 0.67 0 0.34 0 0 Z " fill="#054275" transform="translate(655,697)"/>
<path d="M0 0 C0 4.95 0 9.9 0 15 C-6.39978519 17.4773362 -12.10767723 19.05666272 -19 18 C-22.125 16.4375 -22.125 16.4375 -24 14 C-24.625 10.5 -24.625 10.5 -24 7 C-20.06010773 2.90857342 -16.25865345 2.08353469 -10.875 1.25 C-9.80185547 1.06244141 -9.80185547 1.06244141 -8.70703125 0.87109375 C-5.77026242 0.37156858 -2.98328052 0 0 0 Z " fill="#119AE2" transform="translate(1049,722)"/>
<path d="M0 0 C0.93619813 3.15506142 1.1057123 5.96586502 1.0625 9.25 C1.05347656 10.14203125 1.04445313 11.0340625 1.03515625 11.953125 C1.02355469 12.62859375 1.01195312 13.3040625 1 14 C-5.38626776 17.56442852 -11.78164277 18.0122729 -19 17 C-22.51078283 14.68155851 -23.63834581 13.48278218 -24.625 9.4375 C-24 7 -24 7 -22.25 4.875 C-15.53363006 1.00017119 -7.71260227 -0.52585925 0 0 Z " fill="#0B9CE7" transform="translate(594,755)"/>
<path d="M0 0 C7.16303426 -0.3770018 12.11295165 0.50664006 17.75 5.375 C22.52720331 10.94840386 23.55289571 14.72849545 23.34765625 21.9921875 C22.65664864 27.97056791 20.31667309 31.56084569 16.3125 35.9375 C12.17519359 38.51355871 8.79564903 38.88277302 4 39 C4.721875 38.34 5.44375 37.68 6.1875 37 C11.23521652 31.82248505 14.29741124 27.42222536 14.625 20 C14.34235451 14.25287495 13.14255541 10.09526596 9 6 C6.12092085 4.03086393 3.174597 2.43859733 0 1 C0 0.67 0 0.34 0 0 Z " fill="#044173" transform="translate(708,820)"/>
<path d="M0 0 C7.83271278 -0.42551961 13.55321484 0.023231 19.75 5.375 C24.52720331 10.94840386 25.55289571 14.72849545 25.34765625 21.9921875 C24.68324249 27.74048635 22.40293517 31.94342027 18.25 35.9375 C14.2333917 38.48650142 11.69991616 38.75690089 7 39 C7.7425 38.34 8.485 37.68 9.25 37 C14.15745829 31.98069081 16.24304464 27.03689165 16.5625 20 C16.34390846 14.22918342 15.04301948 10.18452517 11 6 C8.71814131 4.29879285 6.607421 3.23259902 4 2 C2.66525723 1.33615968 1.3315805 0.67016087 0 0 Z " fill="#054274" transform="translate(858,809)"/>
<path d="M0 0 C-0.34933594 0.53109375 -0.69867187 1.0621875 -1.05859375 1.609375 C-1.51363281 2.31578125 -1.96867188 3.0221875 -2.4375 3.75 C-2.88996094 4.44609375 -3.34242188 5.1421875 -3.80859375 5.859375 C-7.67385332 12.80416924 -6.90418367 22.94638253 -5.25 30.5 C-3.37214954 35.7579813 -1.65817046 39.0433632 3.25 41.875 C4.1575 42.24625 5.065 42.6175 6 43 C6 43.33 6 43.66 6 44 C0.7481833 44.315109 -2.54814877 43.8689708 -7 41 C-13.13770868 35.03765443 -14.19962417 27.68112776 -14.4375 19.4375 C-14.26642344 11.67684501 -12.95715741 7.03298196 -7.5625 1.5 C-4.74209271 -0.15097012 -3.21002336 -0.36685981 0 0 Z " fill="#084375" transform="translate(782,712)"/>
<path d="M0 0 C2.43831399 1.01320232 3.53043713 2.17751208 5.19921875 4.2109375 C5.70839844 4.81679688 6.21757813 5.42265625 6.7421875 6.046875 C9.41889458 9.81897298 9.37899471 13.35517077 9.01171875 17.8359375 C7.27737607 23.90613687 3.96632106 27.3083325 -1.37109375 30.51953125 C-9.62027902 34.66874832 -17.80035556 36.47420814 -26.98828125 36.8359375 C-26.98828125 36.5059375 -26.98828125 36.1759375 -26.98828125 35.8359375 C-26.08207031 35.61679687 -25.17585937 35.39765625 -24.2421875 35.171875 C-15.89059506 32.99780967 -7.63361379 30.77128498 -2.27734375 23.51953125 C-0.01432359 18.80833473 -0.31644667 13.94188028 -0.98828125 8.8359375 C-2.78345848 5.74902173 -2.78345848 5.74902173 -4.98828125 3.8359375 C-4.98828125 3.1759375 -4.98828125 2.5159375 -4.98828125 1.8359375 C-1.98828125 -0.1640625 -1.98828125 -0.1640625 0 0 Z " fill="#064476" transform="translate(1002.98828125,924.1640625)"/>
<path d="M0 0 C5.21769009 -0.31306141 8.63135974 0.02138164 13 3 C16.7043013 8.51569557 16.75857321 14.37859808 17.1875 20.8125 C17.3102832 22.37581055 17.3102832 22.37581055 17.43554688 23.97070312 C17.88570481 29.99676697 18.08207341 35.95813432 18 42 C16.02 42 14.04 42 12 42 C11.6814595 39.64651146 11.36900381 37.29256968 11.0625 34.9375 C10.9682373 34.21884766 10.87397461 33.50019531 10.77685547 32.75976562 C10.15690836 27.8303775 9.82993484 22.96342192 9.625 18 C9.25469376 11.953793 8.51018363 7.97276015 5 3 C2.42240798 1.42930551 2.42240798 1.42930551 0 1 C0 0.67 0 0.34 0 0 Z " fill="#024073" transform="translate(444,691)"/>
<path d="M0 0 C10.18087259 -0.64984293 19.95591812 0.33619408 28.125 7 C31.07235783 9.69807881 32.72807819 12.31694711 33.37109375 16.296875 C33.54979233 22.89821093 32.05774109 26.81188817 28 32 C26.02 31.67 24.04 31.34 22 31 C22.33 29.845 22.66 28.69 23 27.5 C24.38435398 21.82214239 25.11381271 17.14512077 22.3125 11.75 C16.2670204 4.56078102 9.15855963 2.17417431 0 1 C0 0.67 0 0.34 0 0 Z " fill="#054375" transform="translate(1081,840)"/>
<path d="M0 0 C1.98 0 3.96 0 6 0 C7.04854074 3.55274792 7.29193109 7.0182411 7.53515625 10.70703125 C7.62216797 12.01607422 7.70917969 13.32511719 7.79882812 14.67382812 C7.86372437 15.69391968 7.86372437 15.69391968 7.92993164 16.73461914 C8.06140952 18.7954078 8.1991896 20.85570189 8.33789062 22.91601562 C8.73242729 28.95865607 9.04984883 34.94215684 9 41 C5.535 41.495 5.535 41.495 2 42 C1.71042041 37.786848 1.42582237 33.57339532 1.14550781 29.35961914 C1.04981595 27.93114514 0.95284721 26.502756 0.85449219 25.07446289 C0.27943751 16.70976446 -0.16055567 8.3901486 0 0 Z " fill="#014175" transform="translate(458,759)"/>
<path d="M0 0 C8.01658487 -0.55821481 14.79937755 0.23631331 22 4 C26.189679 8.189679 27.15166286 10.99971566 27.1875 16.8125 C27.20167969 17.85019531 27.21585938 18.88789062 27.23046875 19.95703125 C26.99714427 23.03770533 26.30118886 25.21761592 25 28 C21.04 28.495 21.04 28.495 17 29 C17.15855469 28.29746094 17.31710937 27.59492187 17.48046875 26.87109375 C18.60695581 20.6457705 18.98818346 14.40601191 16.5625 8.5 C12.05383143 4.10129896 6.24065586 1.80524592 0 1 C0 0.67 0 0.34 0 0 Z " fill="#034275" transform="translate(804,859)"/>
<path d="M0 0 C-3.55366036 2.36910691 -6.95771256 3.04065363 -11.0625 3.91015625 C-11.85019775 4.08252304 -12.63789551 4.25488983 -13.44946289 4.43247986 C-15.96504424 4.9818366 -18.48239547 5.52249834 -21 6.0625 C-23.51722049 6.60770554 -26.03403875 7.1547031 -28.55053711 7.70323181 C-30.11595618 8.04388098 -31.68186092 8.38230751 -33.24829102 8.71827698 C-36.22542766 9.36173312 -39.10771197 10.03590399 -42 11 C-39.94033226 16.14916935 -36.36042722 17.76286469 -31.5859375 19.99609375 C-28.31422053 21.26623161 -25.49131621 21.77230546 -22 22 C-22 22.33 -22 22.66 -22 23 C-32.64637636 23.48638268 -40.47119035 22.72986948 -48.6875 15.59765625 C-50.20383657 13.7518775 -50.49299943 12.30489806 -51 10 C-45.61070646 8.75440293 -40.22129821 7.50930379 -34.83178711 6.26464844 C-33.00167804 5.84193083 -31.17159935 5.41908165 -29.34155273 4.99609375 C-26.69783549 4.38506289 -24.05400615 3.7745191 -21.41015625 3.1640625 C-20.60353043 2.97752106 -19.7969046 2.79097961 -18.96583557 2.5987854 C-17.41339812 2.24051904 -15.86035749 1.88485444 -14.30667114 1.53204346 C-12.70740861 1.16316679 -11.11141133 0.77995354 -9.51828003 0.38543701 C-8.32091721 0.09675751 -8.32091721 0.09675751 -7.09936523 -0.19775391 C-6.02597145 -0.46430283 -6.02597145 -0.46430283 -4.93089294 -0.73623657 C-3 -1 -3 -1 0 0 Z " fill="#105183" transform="translate(988,911)"/>
<path d="M0 0 C-1.0828125 0.7425 -1.0828125 0.7425 -2.1875 1.5 C-7.26730552 6.01538268 -10.48316599 11.10887987 -11 18 C-13.97 18.66 -16.94 19.32 -20 20 C-19.65362127 13.53426377 -18.2695895 8.97385169 -14 4 C-9.68198329 0.33996679 -5.60754372 -0.45775867 0 0 Z " fill="#0B4677" transform="translate(952,877)"/>
<path d="M0 0 C-1.2065625 0.7734375 -1.2065625 0.7734375 -2.4375 1.5625 C-5.28504925 3.84684608 -5.28504925 3.84684608 -5.9375 7.5 C-5.99862576 10.92304284 -6.01470464 12.31372714 -4 15 C-2.68135491 16.01929039 -1.34931809 17.02167568 0 18 C-8.83086516 18.77162899 -8.83086516 18.77162899 -13.125 15.9375 C-15.51416292 12.1944781 -15.85644749 10.36009631 -15 6 C-10.83089223 0.91889991 -6.31816939 -0.14040376 0 0 Z " fill="#094475" transform="translate(617,941)"/>
<path d="M0 0 C-2.98646769 1.99097846 -5.59687262 2.94124926 -9 4 C-9.86013727 7.26276567 -9.86013727 7.26276567 -10 11 C-8.20954506 13.92860404 -8.20954506 13.92860404 -6 16 C-10.37381963 16.42880585 -12.34825296 16.48534354 -15.9375 13.8125 C-18 11 -18 11 -18.625 8.4375 C-17.70790832 4.86084246 -16.10876461 3.91817391 -13 2 C-8.53588734 0.3766863 -4.73821511 -0.23113244 0 0 Z " fill="#104B7C" transform="translate(588,756)"/>
<path d="M0 0 C-0.515625 0.515625 -1.03125 1.03125 -1.5625 1.5625 C-3.61584899 5.04426568 -2.97665028 7.1631596 -2 11 C-0.58408173 12.92283085 -0.58408173 12.92283085 1 14 C-6.32215357 14.36010591 -6.32215357 14.36010591 -9 12.9375 C-10.62897258 9.78136563 -10.48820905 7.47848951 -10 4 C-6.88228157 0.52597089 -4.64040092 -0.53033153 0 0 Z " fill="#064173" transform="translate(1035,725)"/>
<path d="M0 0 C3.15194793 0.5083787 6.01314902 1.34837202 9 2.4375 C14.85039501 4.45692569 20.88432238 5.19654931 27 6 C27 6.33 27 6.66 27 7 C17.23835675 7.30664848 8.07776137 6.86495028 -1 3 C-0.67 2.01 -0.34 1.02 0 0 Z " fill="#155181" transform="translate(1038,920)"/>
<path d="M0 0 C8.00180661 -0.54249536 14.46595398 1.39161312 22 4 C21.01 5.485 21.01 5.485 20 7 C14.42253521 5.22535211 14.42253521 5.22535211 12.125 4 C9.67834827 2.84863448 7.40592828 2.36424995 4.75 1.875 C3.85796875 1.70742188 2.9659375 1.53984375 2.046875 1.3671875 C1.03367187 1.18542969 1.03367187 1.18542969 0 1 C0 0.67 0 0.34 0 0 Z " fill="#145384" transform="translate(893,679)"/>
<path d="M0 0 C0.66 0.33 1.32 0.66 2 1 C1.67 1.99 1.34 2.98 1 4 C-1.76648562 5.05375794 -4.40661473 5.90968139 -7.25 6.6875 C-8.39662109 7.02491211 -8.39662109 7.02491211 -9.56640625 7.36914062 C-13.46152915 8.47578608 -16.909863 9.30267014 -21 9 C-17.24992174 7.00957385 -13.31954022 5.49037934 -9.375 3.9375 C-4.62798423 2.10490209 -4.62798423 2.10490209 0 0 Z " fill="#185383" transform="translate(518,986)"/>
<path d="M0 0 C8.59599799 -0.22588024 16.60182604 0.08041738 25 2 C24.01 2.495 24.01 2.495 23 3 C22.67 3.66 22.34 4.32 22 5 C21.18273438 4.69320312 20.36546875 4.38640625 19.5234375 4.0703125 C15.54770862 2.86260772 11.74108324 2.3290345 7.625 1.875 C6.88894531 1.78863281 6.15289063 1.70226562 5.39453125 1.61328125 C3.59700818 1.40318115 1.79858658 1.20079233 0 1 C0 0.67 0 0.34 0 0 Z " fill="#13659C" transform="translate(1036,668)"/>
<path d="M0 0 C7.2274605 -0.24091535 13.90294338 0.65504172 21 2 C20.01 2.495 20.01 2.495 19 3 C19 3.66 19 4.32 19 5 C12.73 3.68 6.46 2.36 0 1 C0 0.67 0 0.34 0 0 Z " fill="#155383" transform="translate(490,856)"/>
<path d="M0 0 C0.66 0.33 1.32 0.66 2 1 C2 1.66 2 2.32 2 3 C-0.03814233 3.67736481 -2.08070555 4.34143534 -4.125 5 C-5.83042969 5.556875 -5.83042969 5.556875 -7.5703125 6.125 C-10.87895941 6.96911949 -13.60528016 7.16509276 -17 7 C-13.95719201 4.97146134 -11.4043351 4.04537075 -7.9375 2.9375 C-3.88586713 1.67152532 -3.88586713 1.67152532 0 0 Z " fill="#1A5B8C" transform="translate(654,978)"/>
<path d="M0 0 C0.66 0.33 1.32 0.66 2 1 C0.33977615 3.76133452 -0.6586563 4.86799407 -3.70703125 6.046875 C-4.73183594 6.27890625 -5.75664063 6.5109375 -6.8125 6.75 C-7.82957031 6.99234375 -8.84664062 7.2346875 -9.89453125 7.484375 C-12.99187483 7.99865091 -15.86670708 8.09367094 -19 8 C-19 7.67 -19 7.34 -19 7 C-18.04738281 6.74605469 -17.09476563 6.49210938 -16.11328125 6.23046875 C-14.85902344 5.88628906 -13.60476563 5.54210937 -12.3125 5.1875 C-11.07113281 4.85105469 -9.82976563 4.51460937 -8.55078125 4.16796875 C-5.01132264 3.14853103 -5.01132264 3.14853103 -2.16796875 1.30078125 C-1.45253906 0.87152344 -0.73710938 0.44226563 0 0 Z " fill="#125182" transform="translate(995,953)"/>
<path d="M0 0 C0.66 0.33 1.32 0.66 2 1 C2 1.66 2 2.32 2 3 C-4.670985 5.25678003 -10.96871122 6.56615452 -18 7 C-15.0081115 5.00540767 -12.59439888 4.37007465 -9.1328125 3.578125 C-7.00495826 3.001344 -5.12510585 2.23305081 -3.125 1.3125 C-2.09375 0.879375 -1.0625 0.44625 0 0 Z " fill="#195C8E" transform="translate(613,787)"/>
<path d="M0 0 C-2.45974842 3.68962263 -3.60213052 3.70629182 -7.8125 4.6875 C-9.36904297 5.06455078 -9.36904297 5.06455078 -10.95703125 5.44921875 C-13.72578545 5.95036681 -16.19655747 6.10882124 -19 6 C-15.5499962 4.19002264 -11.9985289 2.73982685 -8.375 1.3125 C-7.22773437 0.85488281 -6.08046875 0.39726563 -4.8984375 -0.07421875 C-2 -1 -2 -1 0 0 Z " fill="#195989" transform="translate(1099,948)"/>
<path d="M0 0 C1.26328125 0.20367188 2.5265625 0.40734375 3.828125 0.6171875 C4.79234375 0.78476562 5.7565625 0.95234375 6.75 1.125 C6.42 2.115 6.09 3.105 5.75 4.125 C0.14 3.135 -5.47 2.145 -11.25 1.125 C-6.5983678 -1.2008161 -5.01055527 -0.83509255 0 0 Z " fill="#1D5989" transform="translate(1084.25,882.875)"/>
<path d="M0 0 C-2.08000011 0.84161854 -4.16414146 1.67300763 -6.25 2.5 C-7.41015625 2.9640625 -8.5703125 3.428125 -9.765625 3.90625 C-13 5 -13 5 -17 5 C-17 4.34 -17 3.68 -17 3 C-14.92085336 2.29994051 -12.83648414 1.61537756 -10.75 0.9375 C-9.58984375 0.55464844 -8.4296875 0.17179688 -7.234375 -0.22265625 C-4.19922915 -0.95211763 -2.84296787 -1.11889082 0 0 Z " fill="#125082" transform="translate(600,904)"/>
<path d="M0 0 C6.7281627 -0.22262303 12.53991163 0.04978464 19 2 C18.67 2.99 18.34 3.98 18 5 C17.3709375 4.79503906 16.741875 4.59007812 16.09375 4.37890625 C10.69718181 2.68028765 5.63340386 1.52161147 0 1 C0 0.67 0 0.34 0 0 Z " fill="#145B8F" transform="translate(587,701)"/>
<path d="M0 0 C-2.43414237 1.62276158 -4.31319446 2.61744792 -7 3.625 C-8.0209375 4.01558594 -8.0209375 4.01558594 -9.0625 4.4140625 C-11 5 -11 5 -14 5 C-14 4.34 -14 3.68 -14 3 C-9.07015675 0.96006486 -5.42039575 -0.40652968 0 0 Z " fill="#135081" transform="translate(569,726)"/>
<path d="M0 0 C10.55808656 -0.18451025 10.55808656 -0.18451025 15 1 C14.34 1.66 13.68 2.32 13 3 C8.58782801 2.63834656 4.32556868 1.94621815 0 1 C0 0.67 0 0.34 0 0 Z " fill="#165D91" transform="translate(947,675)"/>
<path d="M0 0 C-2.50248865 1.66832577 -4.41149187 2.62381674 -7.1875 3.625 C-7.90292969 3.88539063 -8.61835937 4.14578125 -9.35546875 4.4140625 C-9.89816406 4.60742188 -10.44085937 4.80078125 -11 5 C-11 4.01 -11 3.02 -11 2 C-7.17010894 0.19769832 -4.21878192 -0.19622241 0 0 Z " fill="#1C5989" transform="translate(1021,694)"/>
<path d="M0 0 C4.16138263 -0.08159574 7.9472484 0.01751476 12 1 C11.01 1.495 11.01 1.495 10 2 C9.67 2.66 9.34 3.32 9 4 C6.03 3.01 3.06 2.02 0 1 C0 0.67 0 0.34 0 0 Z " fill="#155384" transform="translate(795,687)"/>
</svg>
